<?xml version="1.0" encoding="UTF-8" standalone="no"?>
<svg width="101px" height="26px" viewBox="0 0 101 26" version="1.1" xmlns="http://www.w3.org/2000/svg" xmlns:xlink="http://www.w3.org/1999/xlink" xmlns:sketch="http://www.bohemiancoding.com/sketch/ns">
    <!-- Generator: Sketch 3.4.4 (17249) - http://www.bohemiancoding.com/sketch -->
    <title>Page 1</title>
    <desc>Created with Sketch.</desc>
    <defs>
        <path id="path-1" d="M0,0.0210145278 L128.215166,0.0210145278 L128.215166,33 L0,33 L0,0.0210145278 Z"></path>
    </defs>
    <g id="Page-1" stroke="none" stroke-width="1" fill="none" fill-rule="evenodd" sketch:type="MSPage">
        <g id="Artboard-1-Copy" sketch:type="MSArtboardGroup" transform="translate(-46.000000, -208.000000)">
            <g id="Rectangle-2-+-Page-1" sketch:type="MSLayerGroup" transform="translate(0.000000, 190.000000)">
                <g id="Page-1" transform="translate(18.000000, 13.000000)">
                    <path d="M45.7653517,20.3211603 L46.6136391,18.8584533 C46.802112,18.5282136 47.2025969,18.5282136 47.4147685,18.6932935 C47.5326238,18.7640077 49.441131,20.1560804 50.9726924,20.1560804 C52.1979256,20.1560804 53.1169901,19.3540126 53.1169901,18.3394823 C53.1169901,17.1359012 52.1036891,16.3101022 50.1244049,15.5080344 C47.9096494,14.6112814 45.6945746,13.1955574 45.6945746,10.411492 C45.6945746,8.31147748 47.2499146,5.88122324 50.9963114,5.88122324 C53.3996994,5.88122324 55.237589,7.10789637 55.708851,7.46202712 C55.944482,7.60345569 56.015259,8.00464939 55.8502455,8.24044358 L54.9548798,9.58545327 C54.7663271,9.86855012 54.4130003,10.0573613 54.1302113,9.86855012 C53.9417384,9.75053317 52.1509271,8.570923 50.8549168,8.570923 C49.511908,8.570923 48.7813962,9.46767603 48.7813962,10.2227608 C48.7813962,11.3316567 49.653143,12.0866615 51.5618097,12.8653976 C53.847502,13.7855622 56.486521,15.1539036 56.486521,18.1977341 C56.486521,20.6279884 54.3893814,22.8697511 51.0669288,22.8697511 C48.0981222,22.8697511 46.3543094,21.4774387 45.8831272,21.0291821 C45.6711152,20.8167196 45.5533396,20.6987027 45.7653517,20.3211603" id="Fill-1" fill="#288DC1" sketch:type="MSShapeGroup"></path>
                    <path d="M73.4520946,6.5652661 C73.4520946,6.32947191 73.6642662,6.11700944 73.8998971,6.11700944 L76.0911136,6.11700944 C76.3269041,6.11700944 76.5389161,6.32947191 76.5389161,6.5652661 L76.5389161,22.1854525 C76.5389161,22.4212467 76.3269041,22.6336293 76.0911136,22.6336293 L73.8998971,22.6336293 C73.6642662,22.6336293 73.4520946,22.4212467 73.4520946,22.1854525 L73.4520946,6.5652661 Z" id="Fill-3" fill="#288DC1" sketch:type="MSShapeGroup"></path>
                    <path d="M96.5200475,6.5652661 C96.5200475,6.32947191 96.7322191,6.11700944 96.9678501,6.11700944 L99.1590665,6.11700944 C99.3948571,6.11700944 99.6068691,6.32947191 99.6068691,6.5652661 L99.6068691,22.1854525 C99.6068691,22.4212467 99.3948571,22.6336293 99.1590665,22.6336293 L96.9678501,22.6336293 C96.7322191,22.6336293 96.5200475,22.4212467 96.5200475,22.1854525 L96.5200475,6.5652661 Z" id="Fill-5" fill="#288DC1" sketch:type="MSShapeGroup"></path>
                    <path d="M106.110045,8.94844939 L102.505042,8.94844939 C102.245713,8.94844939 102.05724,8.73598692 102.05724,8.50019274 L102.05724,6.56525811 C102.05724,6.32946392 102.245713,6.11700145 102.505042,6.11700145 L112.801868,6.11700145 C113.061198,6.11700145 113.249671,6.32946392 113.249671,6.56525811 L113.249671,8.50019274 C113.249671,8.73598692 113.061198,8.94844939 112.801868,8.94844939 L109.196866,8.94844939 L109.196866,22.1854446 C109.196866,22.4212387 108.984854,22.6336213 108.749064,22.6336213 L106.557847,22.6336213 C106.322216,22.6336213 106.110045,22.4212387 106.110045,22.1854446 L106.110045,8.94844939 Z" id="Fill-7" fill="#288DC1" sketch:type="MSShapeGroup"></path>
                    <g id="Group-11">
                        <mask id="mask-2" sketch:name="Clip 10" fill="white">
                            <use xlink:href="#path-1"></use>
                        </mask>
                        <g id="Clip-10"></g>
                        <path d="M119.634975,14.6819956 L114.262621,6.80138789 C114.074148,6.49455981 114.262621,6.11701743 114.639646,6.11701743 L117.043194,6.11701743 C117.231747,6.11701743 117.349442,6.23511429 117.420219,6.3294799 L121.190315,11.7561821 L124.960331,6.3294799 C125.030948,6.23511429 125.148804,6.11701743 125.337356,6.11701743 L127.764204,6.11701743 C128.141229,6.11701743 128.329782,6.49455981 128.141229,6.80138789 L122.698337,14.6583443 L122.698337,22.1853806 C122.698337,22.4211748 122.486166,22.6336373 122.250375,22.6336373 L120.082937,22.6336373 C119.823448,22.6336373 119.634975,22.4211748 119.634975,22.1853806 L119.634975,14.6819956 Z" id="Fill-9" fill="#288DC1" sketch:type="MSShapeGroup" mask="url(#mask-2)"></path>
                    </g>
                    <path d="M44.5868936,22.0094818 L37.3295714,6.11131235 C37.2589539,5.96956416 37.1646377,5.83292978 36.9290067,5.83292978 L36.6934555,5.83292978 C36.4812839,5.83292978 36.3635083,5.97483777 36.2927313,6.11658596 L28.9647916,21.9974165 C28.823397,22.3042446 29.0119497,22.6125908 29.365436,22.6125908 L31.4153377,22.6125908 C31.7923632,22.6125908 32.004455,22.3743196 32.0987713,22.1385254 L36.7170745,11.9854722 L36.7876919,11.9854722 L39.1439219,17.1791768 L36.8498513,17.1791768 L35.6887723,19.7360775 L40.2986174,19.7360775 L41.4531533,22.2125157 C41.6181668,22.5429952 41.7830207,22.6125908 42.1363474,22.6125908 L44.1864087,22.6125908 C44.5398951,22.6125908 44.7284477,22.3163099 44.5868936,22.0094818" id="Fill-12" fill="#288DC1" sketch:type="MSShapeGroup"></path>
                    <path d="M65.4876959,6.07263923 L59.9503282,6.07263923 C59.6910782,6.07263923 59.7150962,6.32944794 59.7150962,6.56524213 L59.7150962,22.1854286 C59.7150962,22.4212228 59.6910782,22.6125908 59.9503282,22.6125908 L62.118165,22.6125908 C62.3537162,22.6125908 62.5078777,22.4212228 62.5078777,22.1854286 L62.5078777,9.10895884 L65.299223,9.10895884 C66.6186926,9.10895884 67.7260704,10.0859346 67.7260704,11.3835617 C67.7260704,12.7755545 66.6186926,13.8232446 65.299223,13.8232446 L64.8386535,13.8232446 L63.5624321,16.6997579 L65.5111553,16.6997579 C68.385885,16.6997579 70.7657339,14.2647893 70.7657339,11.3389758 C70.7657339,8.48387651 68.385885,6.07263923 65.4876959,6.07263923" id="Fill-14" fill="#288DC1" sketch:type="MSShapeGroup"></path>
                    <path d="M89.6633378,15.956291 C91.7132395,15.1305719 93.1506443,13.3385041 93.1506443,11.1676954 C93.1506443,8.35997869 90.8414927,6.07267119 88.013921,6.07267119 L81.2749391,6.07267119 C81.0158487,6.07267119 80.9402043,6.3294799 80.9402043,6.56527409 L80.9402043,22.1853806 C80.9402043,22.4211748 81.0158487,22.6126228 81.2749391,22.6126228 L83.4427759,22.6126228 C83.6784069,22.6126228 83.8127796,22.4211748 83.8127796,22.1853806 L83.8127796,9.1089908 L87.7546711,9.1089908 C89.003603,9.1089908 90.0874417,10.0367462 90.0874417,11.2873903 C90.0874417,12.6086688 89.003603,13.5835671 87.7546711,13.5835671 L86.2460105,13.5835671 L85.1267434,16.1404678 L86.5058988,16.1404678 L89.6397189,22.3967245 C89.6869568,22.4910901 89.8047324,22.6126228 90.0166646,22.6126228 L92.4909095,22.6126228 C92.891554,22.6126228 93.0564079,22.2456276 92.891554,21.9387995 L89.6633378,15.956291 Z" id="Fill-16" fill="#288DC1" sketch:type="MSShapeGroup"></path>
                    <g id="Group-22"></g>
                    <path d="M30.5628611,27.7053218 C31.1386529,27.7053218 31.6301026,27.2342128 31.6301026,26.6295058 C31.6301026,26.0600361 31.1386529,25.6240845 30.5628611,25.6240845 L29.4463868,25.6240845 L29.4463868,27.7053218 L30.5628611,27.7053218 Z M28.9127261,25.2233702 C28.9127261,25.1529755 28.9689009,25.0896923 29.0461413,25.0896923 L30.5979703,25.0896923 C31.461658,25.0896923 32.1707851,25.79276 32.1707851,26.6436487 C32.1707851,27.5154719 31.461658,28.2256511 30.6049922,28.2256511 L29.4463868,28.2256511 L29.4463868,29.8779683 C29.4463868,29.9482831 29.3831901,30.0115663 29.3129716,30.0115663 L29.0461413,30.0115663 C28.9689009,30.0115663 28.9127261,29.9482831 28.9127261,29.8779683 L28.9127261,25.2233702 Z" id="Fill-41" fill="#288DC1" sketch:type="MSShapeGroup"></path>
                    <path d="M39.613963,29.5896777 C40.7303575,29.5896777 41.6502199,28.6756656 41.6502199,27.5576608 C41.6502199,26.4396559 40.7303575,25.5115809 39.613963,25.5115809 C38.4974887,25.5115809 37.5846481,26.4396559 37.5846481,27.5576608 C37.5846481,28.6756656 38.4974887,29.5896777 39.613963,29.5896777 M39.613963,25.0193775 C41.0182533,25.0193775 42.1417495,26.1514453 42.1417495,27.5576608 C42.1417495,28.9639562 41.0182533,30.0818811 39.613963,30.0818811 C38.2095928,30.0818811 37.0931983,28.9639562 37.0931983,27.5576608 C37.0931983,26.1514453 38.2095928,25.0193775 39.613963,25.0193775" id="Fill-43" fill="#288DC1" sketch:type="MSShapeGroup"></path>
                    <path d="M47.085308,25.2584477 C47.0572206,25.1600869 47.1133954,25.0896923 47.2117013,25.0896923 L47.5066191,25.0896923 C47.5627939,25.0896923 47.6189687,25.1389126 47.6330124,25.1881329 L48.6090496,28.8303581 L48.6370572,28.8303581 L49.8097063,25.0968036 C49.82375,25.0545349 49.8658811,25.0193775 49.9290778,25.0193775 L50.0554711,25.0193775 C50.1116459,25.0193775 50.1607989,25.0545349 50.1748426,25.0968036 L51.3685572,28.8303581 L51.3965648,28.8303581 L52.3515365,25.1881329 C52.3655802,25.1389126 52.4217551,25.0896923 52.4779299,25.0896923 L52.7728476,25.0896923 C52.8711535,25.0896923 52.9273283,25.1600869 52.8992409,25.2584477 L51.5721111,29.9835203 C51.5580674,30.0396923 51.5019724,30.0818811 51.4457178,30.0818811 L51.3333682,30.0818811 C51.284295,30.0818811 51.2350623,30.0468036 51.2140765,30.0045349 L49.9992963,26.2006656 L49.9641871,26.2006656 L48.7705522,30.0045349 C48.7494069,30.0468036 48.7002539,30.0818811 48.6511807,30.0818811 L48.5387513,30.0818811 C48.4826563,30.0818811 48.4264815,30.0396923 48.412358,29.9835203 L47.085308,25.2584477 Z" id="Fill-45" fill="#288DC1" sketch:type="MSShapeGroup"></path>
                    <path d="M58.2079277,25.2233303 C58.2079277,25.1529356 58.2641025,25.0896523 58.3413429,25.0896523 L61.1078723,25.0896523 C61.1851127,25.0896523 61.2412875,25.1529356 61.2412875,25.2233303 L61.2412875,25.4272431 C61.2412875,25.4975579 61.1851127,25.5608412 61.1078723,25.5608412 L58.7486102,25.5608412 L58.7486102,27.2763617 L60.7638016,27.2763617 C60.8340999,27.2763617 60.8972966,27.339645 60.8972966,27.4100397 L60.8972966,27.6139525 C60.8972966,27.6912988 60.8340999,27.7475506 60.7638016,27.7475506 L58.7486102,27.7475506 L58.7486102,29.5404973 L61.1078723,29.5404973 C61.1851127,29.5404973 61.2412875,29.6037806 61.2412875,29.6740954 L61.2412875,29.8780082 C61.2412875,29.948323 61.1851127,30.0116063 61.1078723,30.0116063 L58.3413429,30.0116063 C58.2641025,30.0116063 58.2079277,29.948323 58.2079277,29.8780082 L58.2079277,25.2233303 Z" id="Fill-47" fill="#288DC1" sketch:type="MSShapeGroup"></path>
                    <path d="M68.6353124,27.620976 C69.1759151,27.620976 69.6464589,27.1709615 69.6464589,26.5943804 C69.6464589,26.060068 69.1759151,25.6029421 68.6353124,25.6029421 L67.2731531,25.6029421 L67.2731531,27.620976 L68.6353124,27.620976 Z M66.7184269,25.2233223 C66.7184269,25.1529276 66.7746017,25.0896443 66.8517622,25.0896443 L68.6704216,25.0896443 C69.5130437,25.0896443 70.2011053,25.7506831 70.2011053,26.5873489 C70.2011053,27.2342448 69.7728522,27.7756685 69.1619512,28.0217702 L70.1238649,29.8076855 C70.1730179,29.8990947 70.1238649,30.0115983 70.0044935,30.0115983 L69.6464589,30.0115983 C69.5832622,30.0115983 69.5480732,29.9764409 69.5341093,29.948315 L68.6002031,28.0850535 L67.2591094,28.0850535 L67.2591094,29.8780002 C67.2591094,29.948315 67.1959127,30.0115983 67.1256144,30.0115983 L66.8517622,30.0115983 C66.7746017,30.0115983 66.7184269,29.948315 66.7184269,29.8780002 L66.7184269,25.2233223 Z" id="Fill-49" fill="#288DC1" sketch:type="MSShapeGroup"></path>
                    <path d="M82.4331694,27.8037944 L81.3308187,27.8037944 C81.2605204,27.8037944 81.1973237,27.7405111 81.1973237,27.6701964 L81.1973237,27.473315 C81.1973237,27.4029203 81.2605204,27.339637 81.3308187,27.339637 L82.4331694,27.339637 L82.4331694,26.2287436 C82.4331694,26.1584288 82.4963661,26.102177 82.5665846,26.102177 L82.7631964,26.102177 C82.8334149,26.102177 82.8966116,26.1584288 82.8966116,26.2287436 L82.8966116,27.339637 L84.0059842,27.339637 C84.0762027,27.339637 84.1323775,27.4029203 84.1323775,27.473315 L84.1323775,27.6701964 C84.1323775,27.7405111 84.0762027,27.8037944 84.0059842,27.8037944 L82.8966116,27.8037944 L82.8966116,28.9076564 C82.8966116,28.9779712 82.8334149,29.034223 82.7631964,29.034223 L82.5665846,29.034223 C82.4963661,29.034223 82.4331694,28.9779712 82.4331694,28.9076564 L82.4331694,27.8037944 Z" id="Fill-51" fill="#288DC1" sketch:type="MSShapeGroup"></path>
                    <path d="M95.9640526,25.1178341 C95.9780963,25.0615823 96.0342711,25.0193935 96.0904459,25.0193935 L96.2027955,25.0193935 C96.2518687,25.0193935 96.3081233,25.0545508 96.3220872,25.0967397 L97.7124136,28.9710036 L97.7476027,28.9710036 L99.1167838,25.0967397 C99.1308275,25.0545508 99.1870023,25.0193935 99.2361553,25.0193935 L99.3485049,25.0193935 C99.4045999,25.0193935 99.4607747,25.0615823 99.4748184,25.1178341 L100.380717,29.8428269 C100.401703,29.9412676 100.359572,30.0115823 100.254324,30.0115823 L99.9733698,30.0115823 C99.917195,30.0115823 99.8610202,29.962362 99.8469765,29.9131416 L99.2221116,26.2920109 L99.1940242,26.2920109 L97.9020036,30.0045508 C97.8879599,30.0468196 97.8247632,30.0818971 97.7826321,30.0818971 L97.6562388,30.0818971 C97.6141875,30.0818971 97.5509909,30.0468196 97.5368674,30.0045508 L96.2308829,26.2920109 L96.2027955,26.2920109 L95.5918945,29.9131416 C95.5848726,29.962362 95.521676,30.0115823 95.4655012,30.0115823 L95.1846271,30.0115823 C95.0792994,30.0115823 95.0371683,29.9412676 95.0582338,29.8428269 L95.9640526,25.1178341 Z" id="Fill-53" fill="#288DC1" sketch:type="MSShapeGroup"></path>
                    <path d="M107.978391,29.5896777 C109.094786,29.5896777 110.014728,28.6756656 110.014728,27.5576608 C110.014728,26.4396559 109.094786,25.5115809 107.978391,25.5115809 C106.861917,25.5115809 105.949077,26.4396559 105.949077,27.5576608 C105.949077,28.6756656 106.861917,29.5896777 107.978391,29.5896777 M107.978391,25.0193775 C109.382762,25.0193775 110.506178,26.1514453 110.506178,27.5576608 C110.506178,28.9639562 109.382762,30.0818811 107.978391,30.0818811 C106.574021,30.0818811 105.457627,28.9639562 105.457627,27.5576608 C105.457627,26.1514453 106.574021,25.0193775 107.978391,25.0193775" id="Fill-55" fill="#288DC1" sketch:type="MSShapeGroup"></path>
                    <path d="M117.851074,27.620976 C118.391677,27.620976 118.86222,27.1709615 118.86222,26.5943804 C118.86222,26.060068 118.391677,25.6029421 117.851074,25.6029421 L116.488915,25.6029421 L116.488915,27.620976 L117.851074,27.620976 Z M115.934188,25.2233223 C115.934188,25.1529276 115.990363,25.0896443 116.067524,25.0896443 L117.886183,25.0896443 C118.728805,25.0896443 119.416867,25.7506831 119.416867,26.5873489 C119.416867,27.2342448 118.988614,27.7756685 118.377713,28.0217702 L119.339626,29.8076855 C119.388779,29.8990947 119.339626,30.0115983 119.220255,30.0115983 L118.86222,30.0115983 C118.799024,30.0115983 118.763835,29.9764409 118.749871,29.948315 L117.815965,28.0850535 L116.474871,28.0850535 L116.474871,29.8780002 C116.474871,29.948315 116.411674,30.0115983 116.341376,30.0115983 L116.067524,30.0115983 C115.990363,30.0115983 115.934188,29.948315 115.934188,29.8780002 L115.934188,25.2233223 Z" id="Fill-57" fill="#288DC1" sketch:type="MSShapeGroup"></path>
                    <path d="M124.929187,25.2233303 C124.929187,25.1529356 124.985362,25.0896523 125.062602,25.0896523 L127.829132,25.0896523 C127.906452,25.0896523 127.962547,25.1529356 127.962547,25.2233303 L127.962547,25.4272431 C127.962547,25.4975579 127.906452,25.5608412 127.829132,25.5608412 L125.46987,25.5608412 L125.46987,27.2763617 L127.485061,27.2763617 C127.55528,27.2763617 127.618476,27.339645 127.618476,27.4100397 L127.618476,27.6139525 C127.618476,27.6912988 127.55528,27.7475506 127.485061,27.7475506 L125.46987,27.7475506 L125.46987,29.5404973 L127.829132,29.5404973 C127.906452,29.5404973 127.962547,29.6037806 127.962547,29.6740954 L127.962547,29.8780082 C127.962547,29.948323 127.906452,30.0116063 127.829132,30.0116063 L125.062602,30.0116063 C124.985362,30.0116063 124.929187,29.948323 124.929187,29.8780082 L124.929187,25.2233303 Z" id="Fill-59" fill="#288DC1" sketch:type="MSShapeGroup"></path>
                </g>
            </g>
        </g>
    </g>
</svg>