<?xml version="1.0" encoding="UTF-8" standalone="no"?>
<svg width="9px" height="14px" viewBox="0 0 9 14" version="1.1" xmlns="http://www.w3.org/2000/svg" xmlns:xlink="http://www.w3.org/1999/xlink" xmlns:sketch="http://www.bohemiancoding.com/sketch/ns">
    <!-- Generator: Sketch 3.4.4 (17249) - http://www.bohemiancoding.com/sketch -->
    <title>Fill 27 + Fill 29</title>
    <desc>Created with Sketch.</desc>
    <defs></defs>
    <g id="Page-1" stroke="none" stroke-width="1" fill="none" fill-rule="evenodd" sketch:type="MSPage">
        <g id="Artboard-1-Copy" sketch:type="MSArtboardGroup" transform="translate(-24.000000, -211.000000)">
            <g id="Rectangle-2-+-Page-1" sketch:type="MSLayerGroup" transform="translate(0.000000, 190.000000)">
                <g id="Page-1" transform="translate(18.000000, 13.000000)" sketch:type="MSShapeGroup">
                    <g id="Fill-27-+-Fill-29" transform="translate(6.000000, 8.000000)">
                        <path d="M8.1792154,7.47919734 L8.03534726,7.2295 L4.64850114,0.0180012107 L1.26157522,7.2295 L1.11778687,7.47919734 C0.822629752,8.03708111 0.655222445,8.67303027 0.655222445,9.34829177 C0.655222445,9.68348547 0.696635406,10.0090109 0.774274734,10.3200738 C1.04557352,11.4081949 1.76196189,12.31973 2.71844968,12.8496477 C2.4074934,12.5218051 2.17856511,12.115178 2.06565694,11.6622869 C2.01395058,11.4548584 1.98634194,11.2379213 1.98634194,11.0144322 C1.98634194,10.5642579 2.09789362,10.1402918 2.29466503,9.76834262 C2.32466748,9.71161138 2.35666478,9.6561586 2.39057713,9.60190436 L4.64850114,5.68281477 L6.90642515,9.60190436 C6.9402577,9.6561586 6.972255,9.71161138 7.00233725,9.76834262 C7.19902886,10.1402918 7.31066033,10.5642579 7.31066033,11.0144322 C7.31066033,11.2344056 7.28384963,11.4480666 7.23365935,11.6526186 C7.12162892,12.1092651 6.8917431,12.5192482 6.57871218,12.849408 C7.53934925,12.3170932 8.25773246,11.399885 8.52623846,10.3055315 C8.60156377,9.99878329 8.64170003,9.67829177 8.64170003,9.34829177 C8.64170003,8.67303027 8.47437252,8.03708111 8.1792154,7.47919734" id="Fill-27" fill="#FF9E16"></path>
                        <path d="M7.00230533,9.75067603 L6.90639323,9.58423777 L4.64846922,5.33187215 L2.39054521,9.58423777 L2.29463311,9.75067603 C2.09794149,10.1225453 1.98631002,10.5465913 1.98631002,10.9967656 C1.98631002,11.2202547 2.01391866,11.4371918 2.06562502,11.6446203 C2.24651747,12.3699811 2.72408312,12.9777245 3.36179485,13.3309763 C3.15449066,13.1124412 3.0018452,12.8413298 2.92659968,12.5394557 C2.89212878,12.4011433 2.87369642,12.2565186 2.87369642,12.1074993 C2.87369642,11.8073831 2.948144,11.5246857 3.07924515,11.2768262 C3.09927338,11.2389521 3.12057831,11.2019569 3.14323974,11.1658407 L4.64846922,8.55308765 L6.15377849,11.1658407 C6.17636012,11.2019569 6.19766506,11.2389521 6.21769329,11.2768262 C6.34887423,11.5246857 6.42324202,11.8073831 6.42324202,12.1074993 C6.42324202,12.2541215 6.40536821,12.3965889 6.37193463,12.5329036 C6.29724767,12.8373346 6.14396386,13.1106833 5.93530318,13.3308165 C6.57572789,12.9759666 7.05465003,12.3644678 7.23370723,11.6348722 C7.28381771,11.4304 7.31062841,11.216739 7.31062841,10.9967656 C7.31062841,10.5465913 7.19907674,10.1225453 7.00230533,9.75067603" id="Fill-29" opacity="0.5" fill="#FE9E08"></path>
                    </g>
                </g>
            </g>
        </g>
    </g>
</svg>