<?xml version="1.0" encoding="utf-8"?>
<!-- Generator: Adobe Illustrator 16.0.0, SVG Export Plug-In . SVG Version: 6.00 Build 0)  -->
<!DOCTYPE svg PUBLIC "-//W3C//DTD SVG 1.1//EN" "http://www.w3.org/Graphics/SVG/1.1/DTD/svg11.dtd">
<svg version="1.1" id="Layer_1" xmlns="http://www.w3.org/2000/svg" xmlns:xlink="http://www.w3.org/1999/xlink" x="0px" y="0px"
	 width="367.167px" height="42.489px" viewBox="0 0 367.167 42.489" enable-background="new 0 0 367.167 42.489"
	 xml:space="preserve">
<g>
	<path fill="#FFFFFF" stroke="#FFFFFF" stroke-miterlimit="10" d="M1.038,16.228V1.276h5.178c1.169,0,2.061,0.071,2.676,0.214
		c0.861,0.197,1.596,0.554,2.205,1.071c0.793,0.666,1.386,1.518,1.779,2.555c0.393,1.037,0.59,2.222,0.59,3.554
		c0,1.136-0.133,2.142-0.4,3.019s-0.608,1.603-1.025,2.177c-0.417,0.575-0.874,1.027-1.369,1.357
		c-0.496,0.33-1.094,0.579-1.795,0.749c-0.701,0.17-1.505,0.255-2.415,0.255H1.038z M3.027,14.463h3.209
		c0.991,0,1.769-0.092,2.333-0.275c0.564-0.184,1.014-0.442,1.349-0.775c0.472-0.469,0.839-1.1,1.103-1.892
		c0.263-0.792,0.395-1.752,0.395-2.881c0-1.564-0.258-2.766-0.774-3.606c-0.516-0.839-1.143-1.402-1.881-1.688
		C8.226,3.142,7.368,3.041,6.186,3.041H3.027V14.463z"/>
	<path fill="#FFFFFF" stroke="#FFFFFF" stroke-miterlimit="10" d="M15.599,8.945c0-2.481,0.67-4.424,2.01-5.829
		c1.34-1.404,3.069-2.106,5.188-2.106c1.388,0,2.639,0.33,3.753,0.989s1.963,1.58,2.548,2.759c0.584,1.179,0.876,2.517,0.876,4.013
		c0,1.516-0.308,2.873-0.923,4.069s-1.487,2.103-2.615,2.718c-1.128,0.616-2.345,0.923-3.65,0.923c-1.415,0-2.68-0.34-3.794-1.02
		c-1.114-0.68-1.958-1.608-2.533-2.784S15.599,10.258,15.599,8.945z M17.649,8.976c0,1.802,0.487,3.221,1.461,4.258
		c0.974,1.037,2.196,1.556,3.666,1.556c1.497,0,2.729-0.524,3.697-1.571c0.967-1.047,1.451-2.533,1.451-4.457
		c0-1.217-0.207-2.28-0.621-3.187c-0.414-0.908-1.019-1.612-1.814-2.112c-0.797-0.5-1.69-0.75-2.682-0.75
		c-1.408,0-2.62,0.481-3.635,1.443C18.157,5.12,17.649,6.726,17.649,8.976z"/>
	<path fill="#FFFFFF" stroke="#FFFFFF" stroke-miterlimit="10" d="M32.518,16.228V1.276h2.041l7.896,11.739V1.276h1.907v14.952
		H42.32L34.425,4.479v11.749H32.518z"/>
	<path fill="#FFFFFF" stroke="#FFFFFF" stroke-miterlimit="10" d="M47.355,3.254V1.123h1.979v1.683c0,0.911-0.106,1.567-0.318,1.968
		c-0.294,0.551-0.752,0.966-1.374,1.245l-0.451-0.724c0.369-0.15,0.644-0.386,0.825-0.709c0.181-0.322,0.282-0.766,0.303-1.331
		H47.355z"/>
	<path fill="#FFFFFF" stroke="#FFFFFF" stroke-miterlimit="10" d="M56.194,16.228V3.041h-4.953V1.276h11.915v1.765h-4.973v13.187
		H56.194z"/>
	<path fill="#FFFFFF" stroke="#FFFFFF" stroke-miterlimit="10" d="M69.975,11.424l1.876-0.163c0.089,0.748,0.295,1.361,0.621,1.841
		c0.324,0.479,0.829,0.867,1.512,1.163c0.684,0.295,1.453,0.443,2.307,0.443c0.759,0,1.429-0.112,2.01-0.336
		c0.581-0.224,1.013-0.532,1.297-0.923c0.284-0.391,0.426-0.818,0.426-1.28c0-0.469-0.137-0.879-0.41-1.229
		s-0.725-0.645-1.354-0.882c-0.403-0.156-1.295-0.399-2.676-0.729s-2.348-0.641-2.902-0.934c-0.718-0.374-1.253-0.837-1.604-1.392
		c-0.353-0.554-0.528-1.175-0.528-1.862c0-0.754,0.215-1.46,0.646-2.116c0.431-0.656,1.06-1.155,1.887-1.495s1.747-0.51,2.758-0.51
		c1.114,0,2.097,0.178,2.948,0.536c0.851,0.356,1.505,0.882,1.963,1.576c0.458,0.693,0.704,1.479,0.738,2.355l-1.907,0.143
		c-0.103-0.945-0.45-1.659-1.041-2.142c-0.592-0.483-1.465-0.724-2.62-0.724c-1.203,0-2.08,0.219-2.63,0.657
		c-0.551,0.439-0.826,0.968-0.826,1.586c0,0.537,0.195,0.979,0.584,1.326c0.383,0.347,1.382,0.702,2.999,1.065
		c1.617,0.364,2.726,0.682,3.328,0.954c0.875,0.401,1.521,0.91,1.938,1.525s0.625,1.324,0.625,2.126
		c0,0.796-0.229,1.545-0.687,2.249c-0.458,0.705-1.116,1.252-1.974,1.643c-0.858,0.391-1.824,0.586-2.897,0.586
		c-1.36,0-2.5-0.197-3.419-0.592c-0.92-0.394-1.641-0.987-2.164-1.78C70.278,13.319,70.002,12.423,69.975,11.424z"/>
	<path fill="#FFFFFF" stroke="#FFFFFF" stroke-miterlimit="10" d="M84.7,16.228V1.276h10.869v1.765h-8.88V7.62h8.316v1.754h-8.316
		v5.089h9.229v1.765H84.7z"/>
	<path fill="#FFFFFF" stroke="#FFFFFF" stroke-miterlimit="10" d="M102.49,16.228V3.041h-4.953V1.276h11.915v1.765h-4.973v13.187
		H102.49z"/>
	<path fill="#FFFFFF" stroke="#FFFFFF" stroke-miterlimit="10" d="M115.318,16.228V3.041h-4.953V1.276h11.915v1.765h-4.973v13.187
		H115.318z"/>
	<path fill="#FFFFFF" stroke="#FFFFFF" stroke-miterlimit="10" d="M124.239,16.228V1.276h1.989v13.187h7.403v1.765H124.239z"/>
	<path fill="#FFFFFF" stroke="#FFFFFF" stroke-miterlimit="10" d="M136.041,16.228V1.276h10.869v1.765h-8.88V7.62h8.316v1.754
		h-8.316v5.089h9.229v1.765H136.041z"/>
	<path fill="#FFFFFF" stroke="#FFFFFF" stroke-miterlimit="10" d="M155.944,16.228V1.276h10.141v1.765h-8.152v4.63h7.055v1.765
		h-7.055v6.792H155.944z"/>
	<path fill="#FFFFFF" stroke="#FFFFFF" stroke-miterlimit="10" d="M168.064,8.945c0-2.481,0.67-4.424,2.01-5.829
		c1.34-1.404,3.069-2.106,5.188-2.106c1.388,0,2.639,0.33,3.753,0.989s1.963,1.58,2.548,2.759c0.584,1.179,0.876,2.517,0.876,4.013
		c0,1.516-0.308,2.873-0.923,4.069s-1.487,2.103-2.615,2.718c-1.128,0.616-2.345,0.923-3.65,0.923c-1.415,0-2.68-0.34-3.794-1.02
		c-1.114-0.68-1.958-1.608-2.533-2.784S168.064,10.258,168.064,8.945z M170.115,8.976c0,1.802,0.487,3.221,1.461,4.258
		c0.974,1.037,2.196,1.556,3.666,1.556c1.497,0,2.729-0.524,3.697-1.571c0.967-1.047,1.451-2.533,1.451-4.457
		c0-1.217-0.207-2.28-0.621-3.187c-0.414-0.908-1.019-1.612-1.814-2.112c-0.797-0.5-1.69-0.75-2.682-0.75
		c-1.408,0-2.62,0.481-3.635,1.443C170.622,5.12,170.115,6.726,170.115,8.976z"/>
	<path fill="#FFFFFF" stroke="#FFFFFF" stroke-miterlimit="10" d="M185.034,16.228V1.276h6.665c1.34,0,2.358,0.135,3.056,0.403
		s1.254,0.742,1.671,1.422c0.417,0.68,0.625,1.431,0.625,2.254c0,1.061-0.345,1.955-1.036,2.682s-1.757,1.19-3.199,1.387
		c0.526,0.251,0.926,0.5,1.2,0.745c0.581,0.53,1.131,1.193,1.651,1.989l2.615,4.069h-2.502l-1.989-3.111
		c-0.581-0.897-1.06-1.584-1.436-2.06s-0.712-0.809-1.01-1c-0.297-0.19-0.6-0.323-0.907-0.398c-0.226-0.047-0.595-0.071-1.107-0.071
		h-2.307v6.64H185.034z M187.023,7.875h4.276c0.909,0,1.62-0.093,2.133-0.28s0.902-0.486,1.169-0.897
		c0.267-0.411,0.4-0.858,0.4-1.341c0-0.707-0.258-1.289-0.774-1.744c-0.517-0.456-1.332-0.683-2.446-0.683h-4.758V7.875z"/>
	<path fill="#FFFFFF" stroke="#FFFFFF" stroke-miterlimit="10" d="M209.859,16.228V9.894l-5.793-8.618h2.42l2.963,4.508
		c0.547,0.843,1.056,1.687,1.528,2.529c0.451-0.782,0.998-1.662,1.64-2.642l2.912-4.396h2.318l-5.999,8.618v6.333H209.859z"/>
	<path fill="#FFFFFF" stroke="#FFFFFF" stroke-miterlimit="10" d="M219.027,8.945c0-2.481,0.669-4.424,2.01-5.829
		c1.339-1.404,3.069-2.106,5.188-2.106c1.387,0,2.639,0.33,3.754,0.989c1.113,0.66,1.963,1.58,2.547,2.759
		c0.584,1.179,0.877,2.517,0.877,4.013c0,1.516-0.307,2.873-0.922,4.069s-1.488,2.103-2.615,2.718
		c-1.129,0.616-2.346,0.923-3.65,0.923c-1.416,0-2.68-0.34-3.794-1.02c-1.114-0.68-1.958-1.608-2.532-2.784
		S219.027,10.258,219.027,8.945z M221.078,8.976c0,1.802,0.486,3.221,1.461,4.258c0.973,1.037,2.196,1.556,3.667,1.556
		c1.496,0,2.729-0.524,3.695-1.571s1.451-2.533,1.451-4.457c0-1.217-0.207-2.28-0.621-3.187c-0.412-0.908-1.018-1.612-1.814-2.112
		c-0.797-0.5-1.689-0.75-2.682-0.75c-1.408,0-2.619,0.481-3.634,1.443C221.584,5.12,221.078,6.726,221.078,8.976z"/>
	<path fill="#FFFFFF" stroke="#FFFFFF" stroke-miterlimit="10" d="M245.83,1.276h1.988v8.638c0,1.503-0.17,2.696-0.512,3.58
		s-0.959,1.603-1.852,2.157s-2.062,0.831-3.512,0.831c-1.408,0-2.561-0.241-3.455-0.724c-0.896-0.483-1.535-1.181-1.918-2.096
		c-0.383-0.914-0.574-2.164-0.574-3.748V1.276h1.99v8.628c0,1.298,0.121,2.256,0.363,2.871s0.66,1.089,1.25,1.422
		c0.592,0.333,1.314,0.5,2.17,0.5c1.463,0,2.504-0.33,3.127-0.989c0.621-0.66,0.934-1.928,0.934-3.804V1.276z"/>
	<path fill="#FFFFFF" stroke="#FFFFFF" stroke-miterlimit="10" d="M251.162,16.228V1.276h6.666c1.338,0,2.357,0.135,3.055,0.403
		s1.254,0.742,1.672,1.422c0.416,0.68,0.625,1.431,0.625,2.254c0,1.061-0.346,1.955-1.035,2.682
		c-0.691,0.728-1.758,1.19-3.199,1.387c0.525,0.251,0.926,0.5,1.199,0.745c0.58,0.53,1.131,1.193,1.65,1.989l2.615,4.069h-2.502
		l-1.988-3.111c-0.582-0.897-1.061-1.584-1.436-2.06c-0.377-0.476-0.713-0.809-1.012-1c-0.297-0.19-0.6-0.323-0.906-0.398
		c-0.227-0.047-0.596-0.071-1.107-0.071h-2.307v6.64H251.162z M253.152,7.875h4.275c0.908,0,1.619-0.093,2.133-0.28
		c0.512-0.187,0.902-0.486,1.168-0.897c0.268-0.411,0.4-0.858,0.4-1.341c0-0.707-0.258-1.289-0.773-1.744
		c-0.518-0.456-1.332-0.683-2.445-0.683h-4.758V7.875z"/>
	<path fill="#FFFFFF" stroke="#FFFFFF" stroke-miterlimit="10" d="M281.996,1.276h1.988v8.638c0,1.503-0.17,2.696-0.512,3.58
		s-0.959,1.603-1.852,2.157s-2.062,0.831-3.512,0.831c-1.408,0-2.561-0.241-3.455-0.724c-0.896-0.483-1.535-1.181-1.918-2.096
		c-0.383-0.914-0.574-2.164-0.574-3.748V1.276h1.99v8.628c0,1.298,0.121,2.256,0.363,2.871s0.66,1.089,1.25,1.422
		c0.592,0.333,1.314,0.5,2.17,0.5c1.463,0,2.504-0.33,3.127-0.989c0.621-0.66,0.934-1.928,0.934-3.804V1.276z"/>
	<path fill="#FFFFFF" stroke="#FFFFFF" stroke-miterlimit="10" d="M291.121,16.228V3.041h-4.953V1.276h11.916v1.765h-4.975v13.187
		H291.121z"/>
	<path fill="#FFFFFF" stroke="#FFFFFF" stroke-miterlimit="10" d="M300.463,16.228V1.276h1.988v14.952H300.463z"/>
	<path fill="#FFFFFF" stroke="#FFFFFF" stroke-miterlimit="10" d="M305.877,16.228V1.276h1.988v13.187h7.404v1.765H305.877z"/>
	<path fill="#FFFFFF" stroke="#FFFFFF" stroke-miterlimit="10" d="M317.977,16.228V1.276h1.988v14.952H317.977z"/>
	<path fill="#FFFFFF" stroke="#FFFFFF" stroke-miterlimit="10" d="M327.297,16.228V3.041h-4.953V1.276h11.916v1.765h-4.975v13.187
		H327.297z"/>
	<path fill="#FFFFFF" stroke="#FFFFFF" stroke-miterlimit="10" d="M340.535,16.228V9.894l-5.795-8.618h2.42l2.965,4.508
		c0.545,0.843,1.055,1.687,1.527,2.529c0.451-0.782,0.998-1.662,1.641-2.642l2.912-4.396h2.316l-5.998,8.618v6.333H340.535z"/>
	<path fill="#FFFFFF" stroke="#FFFFFF" stroke-miterlimit="10" d="M349.959,3.254V1.123h1.979v1.683
		c0,0.911-0.105,1.567-0.318,1.968c-0.293,0.551-0.752,0.966-1.373,1.245l-0.451-0.724c0.369-0.15,0.645-0.386,0.824-0.709
		c0.182-0.322,0.283-0.766,0.303-1.331H349.959z"/>
	<path fill="#FFFFFF" stroke="#FFFFFF" stroke-miterlimit="10" d="M354.295,11.424l1.877-0.163c0.088,0.748,0.295,1.361,0.621,1.841
		c0.324,0.479,0.828,0.867,1.512,1.163c0.684,0.295,1.453,0.443,2.307,0.443c0.76,0,1.43-0.112,2.01-0.336
		c0.582-0.224,1.014-0.532,1.297-0.923c0.285-0.391,0.426-0.818,0.426-1.28c0-0.469-0.137-0.879-0.41-1.229
		s-0.725-0.645-1.354-0.882c-0.402-0.156-1.295-0.399-2.676-0.729s-2.348-0.641-2.902-0.934c-0.717-0.374-1.252-0.837-1.604-1.392
		c-0.354-0.554-0.529-1.175-0.529-1.862c0-0.754,0.215-1.46,0.646-2.116c0.43-0.656,1.059-1.155,1.887-1.495
		c0.826-0.34,1.746-0.51,2.758-0.51c1.115,0,2.098,0.178,2.949,0.536c0.85,0.356,1.504,0.882,1.963,1.576
		c0.457,0.693,0.703,1.479,0.738,2.355l-1.908,0.143c-0.102-0.945-0.449-1.659-1.039-2.142c-0.592-0.483-1.465-0.724-2.621-0.724
		c-1.203,0-2.08,0.219-2.629,0.657c-0.551,0.439-0.826,0.968-0.826,1.586c0,0.537,0.195,0.979,0.584,1.326
		c0.383,0.347,1.383,0.702,3,1.065c1.617,0.364,2.725,0.682,3.326,0.954c0.875,0.401,1.521,0.91,1.939,1.525
		c0.416,0.615,0.625,1.324,0.625,2.126c0,0.796-0.229,1.545-0.688,2.249c-0.457,0.705-1.115,1.252-1.973,1.643
		c-0.859,0.391-1.824,0.586-2.898,0.586c-1.359,0-2.5-0.197-3.418-0.592c-0.92-0.394-1.641-0.987-2.164-1.78
		C354.598,13.319,354.322,12.423,354.295,11.424z"/>
	<path fill="#FFFFFF" stroke="#FFFFFF" stroke-miterlimit="10" d="M1.079,41.292V26.341h10.869v1.765h-8.88v4.579h8.316v1.754H3.068
		v5.09h9.229v1.764H1.079z"/>
	<path fill="#FFFFFF" stroke="#FFFFFF" stroke-miterlimit="10" d="M14.963,41.292V26.341h1.989v13.188h7.403v1.764H14.963z"/>
	<path fill="#FFFFFF" stroke="#FFFFFF" stroke-miterlimit="10" d="M26.765,41.292V26.341h10.869v1.765h-8.88v4.579h8.316v1.754
		h-8.316v5.09h9.229v1.764H26.765z"/>
	<path fill="#FFFFFF" stroke="#FFFFFF" stroke-miterlimit="10" d="M51.457,36.05l1.989,0.5c-0.417,1.625-1.167,2.864-2.251,3.718
		c-1.083,0.853-2.408,1.279-3.973,1.279c-1.62,0-2.938-0.327-3.953-0.984c-1.016-0.655-1.788-1.605-2.317-2.851
		c-0.53-1.243-0.795-2.58-0.795-4.008c0-1.557,0.299-2.915,0.897-4.074c0.598-1.159,1.449-2.04,2.553-2.642s2.319-0.903,3.646-0.903
		c1.504,0,2.769,0.381,3.794,1.143s1.74,1.833,2.143,3.213l-1.958,0.459c-0.349-1.088-0.854-1.88-1.518-2.376
		s-1.497-0.744-2.502-0.744c-1.155,0-2.121,0.274-2.896,0.825c-0.776,0.551-1.321,1.29-1.636,2.219
		c-0.314,0.928-0.472,1.885-0.472,2.871c0,1.271,0.186,2.381,0.559,3.33c0.373,0.948,0.952,1.657,1.738,2.126
		s1.637,0.704,2.553,0.704c1.114,0,2.058-0.319,2.83-0.96C50.66,38.257,51.183,37.308,51.457,36.05z"/>
	<path fill="#FFFFFF" stroke="#FFFFFF" stroke-miterlimit="10" d="M59.721,41.292V28.105h-4.953v-1.765h11.915v1.765H61.71v13.187
		H59.721z"/>
	<path fill="#FFFFFF" stroke="#FFFFFF" stroke-miterlimit="10" d="M68.755,41.292V26.341h6.665c1.34,0,2.358,0.135,3.056,0.403
		c0.697,0.268,1.254,0.742,1.671,1.422s0.625,1.432,0.625,2.254c0,1.061-0.345,1.955-1.036,2.682
		c-0.69,0.729-1.757,1.191-3.199,1.388c0.526,0.252,0.926,0.5,1.2,0.745c0.581,0.53,1.131,1.193,1.651,1.988l2.615,4.069h-2.502
		l-1.989-3.11c-0.581-0.897-1.06-1.584-1.436-2.061c-0.376-0.476-0.712-0.809-1.01-0.999c-0.297-0.19-0.6-0.323-0.907-0.397
		c-0.226-0.048-0.595-0.072-1.107-0.072h-2.307v6.64H68.755z M70.744,32.938h4.276c0.909,0,1.62-0.093,2.133-0.279
		s0.902-0.485,1.169-0.897s0.4-0.858,0.4-1.342c0-0.707-0.258-1.289-0.774-1.743c-0.517-0.457-1.332-0.684-2.446-0.684h-4.758
		V32.938z"/>
	<path fill="#FFFFFF" stroke="#FFFFFF" stroke-miterlimit="10" d="M84.228,41.292V26.341h1.989v14.951H84.228z"/>
	<path fill="#FFFFFF" stroke="#FFFFFF" stroke-miterlimit="10" d="M100.45,36.05l1.989,0.5c-0.417,1.625-1.167,2.864-2.251,3.718
		c-1.083,0.853-2.408,1.279-3.973,1.279c-1.62,0-2.938-0.327-3.953-0.984c-1.016-0.655-1.788-1.605-2.317-2.851
		c-0.53-1.243-0.795-2.58-0.795-4.008c0-1.557,0.299-2.915,0.897-4.074c0.598-1.159,1.449-2.04,2.553-2.642s2.319-0.903,3.646-0.903
		c1.504,0,2.769,0.381,3.794,1.143s1.74,1.833,2.143,3.213l-1.958,0.459c-0.349-1.088-0.854-1.88-1.518-2.376
		s-1.497-0.744-2.502-0.744c-1.155,0-2.121,0.274-2.896,0.825c-0.776,0.551-1.321,1.29-1.636,2.219
		c-0.314,0.928-0.472,1.885-0.472,2.871c0,1.271,0.186,2.381,0.559,3.33c0.373,0.948,0.952,1.657,1.738,2.126
		s1.637,0.704,2.553,0.704c1.114,0,2.058-0.319,2.83-0.96C99.653,38.257,100.176,37.308,100.45,36.05z"/>
	<path fill="#FFFFFF" stroke="#FFFFFF" stroke-miterlimit="10" d="M105.228,41.292V26.341h1.989v14.951H105.228z"/>
	<path fill="#FFFFFF" stroke="#FFFFFF" stroke-miterlimit="10" d="M114.549,41.292V28.105h-4.953v-1.765h11.915v1.765h-4.973v13.187
		H114.549z"/>
	<path fill="#FFFFFF" stroke="#FFFFFF" stroke-miterlimit="10" d="M127.787,41.292v-6.333l-5.793-8.618h2.42l2.963,4.508
		c0.547,0.843,1.056,1.687,1.528,2.529c0.451-0.782,0.998-1.663,1.641-2.642l2.912-4.396h2.317l-5.999,8.618v6.333H127.787z"/>
	<path fill="#FFFFFF" stroke="#FFFFFF" stroke-miterlimit="10" d="M143.014,41.292V26.341h5.67c0.998,0,1.76,0.048,2.287,0.143
		c0.738,0.122,1.357,0.355,1.856,0.698c0.499,0.344,0.9,0.825,1.205,1.443c0.304,0.619,0.457,1.299,0.457,2.04
		c0,1.271-0.407,2.348-1.22,3.228c-0.813,0.881-2.283,1.321-4.409,1.321h-3.855v6.078H143.014z M145.003,33.45h3.886
		c1.285,0,2.198-0.239,2.738-0.715c0.54-0.477,0.81-1.146,0.81-2.009c0-0.626-0.159-1.161-0.477-1.606
		c-0.317-0.445-0.736-0.739-1.256-0.883c-0.335-0.088-0.954-0.132-1.856-0.132h-3.845V33.45z"/>
	<path fill="#FFFFFF" stroke="#FFFFFF" stroke-miterlimit="10" d="M157.051,41.292V26.341h6.665c1.34,0,2.358,0.135,3.056,0.403
		c0.697,0.268,1.254,0.742,1.671,1.422s0.625,1.432,0.625,2.254c0,1.061-0.345,1.955-1.036,2.682
		c-0.69,0.729-1.757,1.191-3.199,1.388c0.526,0.252,0.926,0.5,1.2,0.745c0.581,0.53,1.131,1.193,1.651,1.988l2.615,4.069h-2.502
		l-1.989-3.11c-0.581-0.897-1.06-1.584-1.436-2.061c-0.376-0.476-0.712-0.809-1.01-0.999c-0.297-0.19-0.6-0.323-0.907-0.397
		c-0.226-0.048-0.595-0.072-1.107-0.072h-2.307v6.64H157.051z M159.041,32.938h4.276c0.909,0,1.62-0.093,2.133-0.279
		s0.902-0.485,1.169-0.897s0.4-0.858,0.4-1.342c0-0.707-0.258-1.289-0.774-1.743c-0.517-0.457-1.332-0.684-2.446-0.684h-4.758
		V32.938z"/>
	<path fill="#FFFFFF" stroke="#FFFFFF" stroke-miterlimit="10" d="M172.524,41.292V26.341h1.989v14.951H172.524z"/>
	<path fill="#FFFFFF" stroke="#FFFFFF" stroke-miterlimit="10" d="M188.746,36.05l1.989,0.5c-0.417,1.625-1.167,2.864-2.251,3.718
		c-1.083,0.853-2.408,1.279-3.973,1.279c-1.62,0-2.938-0.327-3.953-0.984c-1.016-0.655-1.788-1.605-2.317-2.851
		c-0.53-1.243-0.795-2.58-0.795-4.008c0-1.557,0.299-2.915,0.897-4.074c0.598-1.159,1.449-2.04,2.553-2.642s2.319-0.903,3.646-0.903
		c1.504,0,2.769,0.381,3.794,1.143s1.74,1.833,2.143,3.213l-1.958,0.459c-0.349-1.088-0.854-1.88-1.518-2.376
		s-1.497-0.744-2.502-0.744c-1.155,0-2.121,0.274-2.896,0.825c-0.776,0.551-1.321,1.29-1.636,2.219
		c-0.314,0.928-0.472,1.885-0.472,2.871c0,1.271,0.186,2.381,0.559,3.33c0.373,0.948,0.952,1.657,1.738,2.126
		s1.637,0.704,2.553,0.704c1.114,0,2.058-0.319,2.83-0.96C187.95,38.257,188.473,37.308,188.746,36.05z"/>
	<path fill="#FFFFFF" stroke="#FFFFFF" stroke-miterlimit="10" d="M193.227,41.292V26.341h10.869v1.765h-8.88v4.579h8.316v1.754
		h-8.316v5.09h9.229v1.764H193.227z"/>
</g>
</svg>
