<?xml version="1.0" encoding="utf-8"?>
<!-- Generator: Adobe Illustrator 16.0.0, SVG Export Plug-In . SVG Version: 6.00 Build 0)  -->
<!DOCTYPE svg PUBLIC "-//W3C//DTD SVG 1.1//EN" "http://www.w3.org/Graphics/SVG/1.1/DTD/svg11.dtd">
<svg version="1.1" id="Layer_1" xmlns="http://www.w3.org/2000/svg" xmlns:xlink="http://www.w3.org/1999/xlink" x="0px" y="0px"
	 width="206.625px" height="67.416px" viewBox="0 0 206.625 67.416" enable-background="new 0 0 206.625 67.416"
	 xml:space="preserve">
<g>
	<path fill="#FFFFFF" stroke="#FFFFFF" stroke-miterlimit="10" d="M2.495,16.09V1.058h5.178c1.169,0,2.061,0.072,2.676,0.215
		c0.861,0.198,1.596,0.557,2.205,1.077c0.793,0.67,1.386,1.526,1.779,2.568c0.393,1.043,0.59,2.234,0.59,3.574
		c0,1.142-0.133,2.153-0.4,3.035s-0.608,1.612-1.025,2.189c-0.417,0.578-0.874,1.033-1.369,1.364
		c-0.496,0.332-1.094,0.583-1.795,0.753S8.829,16.09,7.919,16.09H2.495z M4.484,14.316h3.209c0.991,0,1.769-0.092,2.333-0.277
		c0.564-0.185,1.014-0.444,1.349-0.779c0.472-0.472,0.839-1.105,1.103-1.902c0.263-0.796,0.395-1.762,0.395-2.896
		c0-1.572-0.258-2.78-0.774-3.625c-0.516-0.844-1.143-1.41-1.881-1.697C9.683,2.934,8.825,2.832,7.643,2.832H4.484V14.316z"/>
	<path fill="#FFFFFF" stroke="#FFFFFF" stroke-miterlimit="10" d="M17.056,8.769c0-2.495,0.67-4.448,2.01-5.86
		c1.34-1.411,3.069-2.117,5.188-2.117c1.388,0,2.639,0.332,3.753,0.995s1.963,1.588,2.548,2.774
		c0.584,1.186,0.876,2.531,0.876,4.035c0,1.524-0.308,2.888-0.923,4.091s-1.487,2.114-2.615,2.732
		c-1.128,0.619-2.345,0.928-3.65,0.928c-1.415,0-2.68-0.342-3.794-1.025s-1.958-1.617-2.533-2.799S17.056,10.088,17.056,8.769z
		 M19.106,8.799c0,1.812,0.487,3.239,1.461,4.281c0.974,1.043,2.196,1.564,3.666,1.564c1.497,0,2.729-0.526,3.697-1.579
		c0.967-1.053,1.451-2.546,1.451-4.481c0-1.224-0.207-2.292-0.621-3.204c-0.414-0.913-1.019-1.62-1.814-2.123
		c-0.797-0.502-1.69-0.753-2.682-0.753c-1.408,0-2.62,0.484-3.635,1.451C19.614,4.922,19.106,6.537,19.106,8.799z"/>
	<path fill="#FFFFFF" stroke="#FFFFFF" stroke-miterlimit="10" d="M33.975,16.09V1.058h2.041l7.896,11.802V1.058h1.907V16.09h-2.041
		L35.882,4.277V16.09H33.975z"/>
	<path fill="#FFFFFF" stroke="#FFFFFF" stroke-miterlimit="10" d="M48.812,3.047V0.904h1.979v1.692c0,0.916-0.106,1.576-0.318,1.979
		c-0.294,0.554-0.752,0.971-1.374,1.251l-0.451-0.728c0.369-0.15,0.644-0.388,0.825-0.713c0.181-0.324,0.282-0.771,0.303-1.338
		H48.812z"/>
	<path fill="#FFFFFF" stroke="#FFFFFF" stroke-miterlimit="10" d="M57.651,16.09V2.832h-4.953V1.058h11.915v1.774H59.64V16.09
		H57.651z"/>
	<path fill="#FFFFFF" stroke="#FFFFFF" stroke-miterlimit="10" d="M71.432,11.26l1.876-0.164c0.089,0.752,0.295,1.369,0.621,1.851
		c0.324,0.481,0.829,0.871,1.512,1.169c0.684,0.297,1.453,0.446,2.307,0.446c0.759,0,1.429-0.113,2.01-0.338
		s1.013-0.535,1.297-0.928s0.426-0.822,0.426-1.287c0-0.472-0.137-0.883-0.41-1.235s-0.725-0.648-1.354-0.887
		c-0.403-0.157-1.295-0.401-2.676-0.733s-2.348-0.645-2.902-0.938c-0.718-0.376-1.253-0.842-1.604-1.399
		c-0.353-0.557-0.528-1.181-0.528-1.872c0-0.759,0.215-1.468,0.646-2.127s1.06-1.161,1.887-1.502s1.747-0.513,2.758-0.513
		c1.114,0,2.097,0.179,2.948,0.539c0.851,0.358,1.505,0.887,1.963,1.584s0.704,1.487,0.738,2.369L81.04,5.436
		C80.938,4.486,80.59,3.768,80,3.283c-0.592-0.485-1.465-0.728-2.62-0.728c-1.203,0-2.08,0.221-2.63,0.661
		c-0.551,0.441-0.826,0.973-0.826,1.595c0,0.54,0.195,0.984,0.584,1.333c0.383,0.349,1.382,0.706,2.999,1.071
		c1.617,0.366,2.726,0.686,3.328,0.959c0.875,0.403,1.521,0.915,1.938,1.533s0.625,1.331,0.625,2.138c0,0.8-0.229,1.554-0.687,2.261
		c-0.458,0.708-1.116,1.258-1.974,1.651c-0.858,0.393-1.824,0.589-2.897,0.589c-1.36,0-2.5-0.198-3.419-0.595
		c-0.92-0.396-1.641-0.993-2.164-1.79C71.735,13.166,71.459,12.265,71.432,11.26z"/>
	<path fill="#FFFFFF" stroke="#FFFFFF" stroke-miterlimit="10" d="M86.157,16.09V1.058h10.869v1.774h-8.88v4.604h8.316v1.764h-8.316
		v5.117h9.229v1.774H86.157z"/>
	<path fill="#FFFFFF" stroke="#FFFFFF" stroke-miterlimit="10" d="M103.947,16.09V2.832h-4.953V1.058h11.915v1.774h-4.973V16.09
		H103.947z"/>
	<path fill="#FFFFFF" stroke="#FFFFFF" stroke-miterlimit="10" d="M116.775,16.09V2.832h-4.953V1.058h11.915v1.774h-4.973V16.09
		H116.775z"/>
	<path fill="#FFFFFF" stroke="#FFFFFF" stroke-miterlimit="10" d="M125.696,16.09V1.058h1.989v13.258h7.403v1.774H125.696z"/>
	<path fill="#FFFFFF" stroke="#FFFFFF" stroke-miterlimit="10" d="M137.498,16.09V1.058h10.869v1.774h-8.88v4.604h8.316v1.764
		h-8.316v5.117h9.229v1.774H137.498z"/>
	<path fill="#FFFFFF" stroke="#FFFFFF" stroke-miterlimit="10" d="M157.4,16.09V1.058h10.141v1.774h-8.151v4.655h7.055v1.774h-7.055
		v6.829H157.4z"/>
	<path fill="#FFFFFF" stroke="#FFFFFF" stroke-miterlimit="10" d="M169.521,8.769c0-2.495,0.669-4.448,2.01-5.86
		c1.339-1.411,3.068-2.117,5.188-2.117c1.388,0,2.639,0.332,3.754,0.995c1.113,0.663,1.963,1.588,2.548,2.774
		c0.584,1.186,0.876,2.531,0.876,4.035c0,1.524-0.307,2.888-0.922,4.091s-1.487,2.114-2.615,2.732
		c-1.128,0.619-2.345,0.928-3.65,0.928c-1.415,0-2.68-0.342-3.794-1.025s-1.958-1.617-2.532-2.799S169.521,10.088,169.521,8.769z
		 M171.572,8.799c0,1.812,0.486,3.239,1.461,4.281c0.974,1.043,2.195,1.564,3.666,1.564c1.496,0,2.729-0.526,3.696-1.579
		c0.967-1.053,1.45-2.546,1.45-4.481c0-1.224-0.206-2.292-0.62-3.204c-0.413-0.913-1.019-1.62-1.814-2.123
		c-0.797-0.502-1.69-0.753-2.682-0.753c-1.408,0-2.62,0.484-3.635,1.451C172.079,4.922,171.572,6.537,171.572,8.799z"/>
	<path fill="#FFFFFF" stroke="#FFFFFF" stroke-miterlimit="10" d="M186.49,16.09V1.058h6.666c1.339,0,2.357,0.135,3.055,0.405
		s1.255,0.747,1.672,1.43s0.625,1.439,0.625,2.266c0,1.066-0.345,1.965-1.035,2.697s-1.757,1.196-3.199,1.395
		c0.526,0.253,0.926,0.502,1.199,0.749c0.581,0.533,1.132,1.2,1.651,2l2.614,4.091h-2.502l-1.988-3.127
		c-0.582-0.902-1.061-1.593-1.436-2.071c-0.377-0.479-0.713-0.813-1.011-1.005c-0.297-0.191-0.6-0.325-0.907-0.4
		c-0.226-0.048-0.595-0.072-1.107-0.072h-2.307v6.675H186.49z M188.48,7.692h4.275c0.909,0,1.62-0.094,2.133-0.282
		s0.902-0.489,1.169-0.902s0.399-0.863,0.399-1.349c0-0.711-0.258-1.295-0.773-1.753c-0.517-0.458-1.332-0.687-2.445-0.687h-4.758
		V7.692z"/>
	<path fill="#FFFFFF" stroke="#FFFFFF" stroke-miterlimit="10" d="M6.73,41.29v-6.367l-5.793-8.665h2.42L6.32,30.79
		c0.547,0.848,1.056,1.695,1.528,2.543c0.451-0.786,0.998-1.672,1.641-2.656l2.912-4.419h2.317l-5.999,8.665v6.367H6.73z"/>
	<path fill="#FFFFFF" stroke="#FFFFFF" stroke-miterlimit="10" d="M15.897,33.969c0-2.495,0.67-4.448,2.01-5.86
		c1.34-1.411,3.069-2.117,5.188-2.117c1.388,0,2.639,0.331,3.753,0.995c1.114,0.662,1.963,1.587,2.548,2.773
		c0.584,1.186,0.876,2.531,0.876,4.034c0,1.525-0.308,2.889-0.923,4.092S27.863,40,26.735,40.618
		c-1.128,0.619-2.345,0.928-3.65,0.928c-1.415,0-2.68-0.341-3.794-1.025c-1.114-0.683-1.958-1.616-2.533-2.799
		S15.897,35.288,15.897,33.969z M17.948,33.999c0,1.812,0.487,3.239,1.461,4.281c0.974,1.043,2.196,1.564,3.666,1.564
		c1.497,0,2.729-0.526,3.697-1.58c0.967-1.052,1.451-2.546,1.451-4.48c0-1.224-0.207-2.292-0.621-3.204
		c-0.414-0.913-1.019-1.62-1.814-2.123c-0.797-0.502-1.69-0.754-2.682-0.754c-1.408,0-2.62,0.484-3.635,1.451
		C18.455,30.122,17.948,31.737,17.948,33.999z"/>
	<path fill="#FFFFFF" stroke="#FFFFFF" stroke-miterlimit="10" d="M42.701,26.258h1.989v8.685c0,1.512-0.171,2.711-0.513,3.6
		s-0.959,1.611-1.851,2.169c-0.893,0.557-2.063,0.835-3.512,0.835c-1.408,0-2.56-0.242-3.456-0.728s-1.535-1.188-1.917-2.107
		c-0.383-0.919-0.574-2.175-0.574-3.769v-8.685h1.989v8.675c0,1.306,0.121,2.268,0.364,2.887c0.243,0.618,0.66,1.096,1.251,1.43
		c0.591,0.336,1.314,0.503,2.169,0.503c1.463,0,2.505-0.331,3.127-0.995c0.622-0.662,0.933-1.938,0.933-3.824V26.258z"/>
	<path fill="#FFFFFF" stroke="#FFFFFF" stroke-miterlimit="10" d="M48.033,41.29V26.258h6.665c1.34,0,2.358,0.135,3.056,0.405
		s1.254,0.747,1.671,1.431s0.625,1.438,0.625,2.266c0,1.066-0.345,1.966-1.036,2.696c-0.69,0.732-1.757,1.197-3.199,1.395
		c0.526,0.254,0.926,0.503,1.2,0.749c0.581,0.533,1.131,1.2,1.651,1.999l2.615,4.092h-2.502l-1.989-3.127
		c-0.581-0.902-1.06-1.593-1.436-2.072c-0.376-0.478-0.712-0.812-1.01-1.004c-0.297-0.191-0.6-0.325-0.907-0.4
		c-0.226-0.048-0.595-0.072-1.107-0.072h-2.307v6.676H48.033z M50.022,32.892h4.276c0.909,0,1.62-0.094,2.133-0.281
		c0.513-0.188,0.902-0.489,1.169-0.902c0.267-0.414,0.4-0.863,0.4-1.349c0-0.711-0.258-1.295-0.774-1.753
		c-0.517-0.458-1.332-0.688-2.446-0.688h-4.758V32.892z"/>
	<path fill="#FFFFFF" stroke="#FFFFFF" stroke-miterlimit="10" d="M78.866,26.258h1.989v8.685c0,1.512-0.171,2.711-0.513,3.6
		s-0.959,1.611-1.851,2.169c-0.893,0.557-2.063,0.835-3.512,0.835c-1.408,0-2.56-0.242-3.456-0.728s-1.535-1.188-1.917-2.107
		c-0.383-0.919-0.574-2.175-0.574-3.769v-8.685h1.989v8.675c0,1.306,0.121,2.268,0.364,2.887c0.243,0.618,0.66,1.096,1.251,1.43
		c0.591,0.336,1.314,0.503,2.169,0.503c1.463,0,2.505-0.331,3.127-0.995c0.622-0.662,0.933-1.938,0.933-3.824V26.258z"/>
	<path fill="#FFFFFF" stroke="#FFFFFF" stroke-miterlimit="10" d="M87.992,41.29V28.031H83.04v-1.773h11.915v1.773h-4.973V41.29
		H87.992z"/>
	<path fill="#FFFFFF" stroke="#FFFFFF" stroke-miterlimit="10" d="M97.333,41.29V26.258h1.989V41.29H97.333z"/>
	<path fill="#FFFFFF" stroke="#FFFFFF" stroke-miterlimit="10" d="M102.748,41.29V26.258h1.989v13.259h7.403v1.773H102.748z"/>
	<path fill="#FFFFFF" stroke="#FFFFFF" stroke-miterlimit="10" d="M114.847,41.29V26.258h1.989V41.29H114.847z"/>
	<path fill="#FFFFFF" stroke="#FFFFFF" stroke-miterlimit="10" d="M124.168,41.29V28.031h-4.953v-1.773h11.916v1.773h-4.975V41.29
		H124.168z"/>
	<path fill="#FFFFFF" stroke="#FFFFFF" stroke-miterlimit="10" d="M137.406,41.29v-6.367l-5.794-8.665h2.42l2.964,4.532
		c0.546,0.848,1.056,1.695,1.527,2.543c0.451-0.786,0.998-1.672,1.641-2.656l2.912-4.419h2.317l-5.999,8.665v6.367H137.406z"/>
	<path fill="#FFFFFF" stroke="#FFFFFF" stroke-miterlimit="10" d="M146.829,28.247v-2.144h1.979v1.692
		c0,0.916-0.105,1.576-0.317,1.979c-0.294,0.555-0.752,0.972-1.374,1.252l-0.451-0.729c0.369-0.15,0.645-0.388,0.825-0.713
		c0.182-0.324,0.282-0.771,0.303-1.338H146.829z"/>
	<path fill="#FFFFFF" stroke="#FFFFFF" stroke-miterlimit="10" d="M151.166,36.46l1.877-0.164c0.088,0.753,0.295,1.369,0.62,1.852
		c0.324,0.481,0.828,0.871,1.513,1.169c0.683,0.297,1.452,0.446,2.307,0.446c0.759,0,1.429-0.113,2.01-0.339
		s1.014-0.535,1.297-0.928c0.284-0.394,0.426-0.822,0.426-1.287c0-0.472-0.137-0.884-0.41-1.235
		c-0.273-0.353-0.725-0.647-1.354-0.887c-0.403-0.157-1.296-0.402-2.676-0.733c-1.382-0.332-2.349-0.645-2.902-0.938
		c-0.718-0.376-1.253-0.843-1.604-1.399c-0.353-0.558-0.528-1.181-0.528-1.872c0-0.758,0.215-1.468,0.646-2.127
		c0.43-0.659,1.059-1.161,1.887-1.503c0.826-0.342,1.746-0.512,2.758-0.512c1.114,0,2.097,0.179,2.948,0.538
		c0.851,0.358,1.505,0.887,1.964,1.584c0.457,0.697,0.703,1.486,0.738,2.369l-1.908,0.143c-0.102-0.949-0.449-1.667-1.04-2.152
		c-0.592-0.485-1.465-0.729-2.62-0.729c-1.203,0-2.08,0.221-2.63,0.661c-0.551,0.441-0.825,0.973-0.825,1.595
		c0,0.54,0.194,0.984,0.584,1.333c0.383,0.349,1.383,0.706,2.999,1.071c1.617,0.366,2.726,0.686,3.327,0.959
		c0.875,0.403,1.521,0.914,1.938,1.533c0.417,0.618,0.626,1.331,0.626,2.138c0,0.8-0.229,1.554-0.688,2.261
		c-0.458,0.708-1.116,1.258-1.974,1.651c-0.858,0.393-1.824,0.589-2.897,0.589c-1.36,0-2.5-0.198-3.419-0.594
		c-0.92-0.396-1.641-0.993-2.164-1.79C151.469,38.366,151.193,37.466,151.166,36.46z"/>
	<path fill="#FFFFFF" stroke="#FFFFFF" stroke-miterlimit="10" d="M2.536,66.49V51.458h10.869v1.774h-8.88v4.604h8.316V59.6H4.525
		v5.117h9.229v1.773H2.536z"/>
	<path fill="#FFFFFF" stroke="#FFFFFF" stroke-miterlimit="10" d="M16.42,66.49V51.458h1.989v13.259h7.403v1.773H16.42z"/>
	<path fill="#FFFFFF" stroke="#FFFFFF" stroke-miterlimit="10" d="M28.222,66.49V51.458h10.869v1.774h-8.88v4.604h8.316V59.6h-8.316
		v5.117h9.229v1.773H28.222z"/>
	<path fill="#FFFFFF" stroke="#FFFFFF" stroke-miterlimit="10" d="M52.914,61.22l1.989,0.503c-0.417,1.634-1.167,2.879-2.251,3.737
		c-1.083,0.857-2.408,1.286-3.973,1.286c-1.62,0-2.938-0.329-3.953-0.989c-1.016-0.659-1.788-1.614-2.317-2.866
		c-0.53-1.25-0.795-2.594-0.795-4.029c0-1.565,0.299-2.931,0.897-4.097c0.598-1.165,1.449-2.051,2.553-2.655
		c1.104-0.605,2.319-0.908,3.646-0.908c1.504,0,2.769,0.384,3.794,1.148c1.025,0.767,1.74,1.843,2.143,3.23l-1.958,0.461
		c-0.349-1.093-0.854-1.89-1.518-2.389s-1.497-0.748-2.502-0.748c-1.155,0-2.121,0.276-2.896,0.83
		c-0.776,0.554-1.321,1.297-1.636,2.23c-0.314,0.933-0.472,1.896-0.472,2.887c0,1.278,0.186,2.394,0.559,3.348
		c0.373,0.953,0.952,1.666,1.738,2.138s1.637,0.708,2.553,0.708c1.114,0,2.058-0.321,2.83-0.965
		C52.117,63.438,52.64,62.484,52.914,61.22z"/>
	<path fill="#FFFFFF" stroke="#FFFFFF" stroke-miterlimit="10" d="M61.178,66.49V53.232h-4.953v-1.774h11.915v1.774h-4.973V66.49
		H61.178z"/>
	<path fill="#FFFFFF" stroke="#FFFFFF" stroke-miterlimit="10" d="M70.212,66.49V51.458h6.665c1.34,0,2.358,0.135,3.056,0.405
		c0.697,0.27,1.254,0.747,1.671,1.43c0.417,0.685,0.625,1.439,0.625,2.267c0,1.066-0.345,1.966-1.036,2.696
		c-0.69,0.732-1.757,1.197-3.199,1.395c0.526,0.254,0.926,0.503,1.2,0.749c0.581,0.533,1.131,1.2,1.651,1.999l2.615,4.092h-2.502
		l-1.989-3.127c-0.581-0.902-1.06-1.593-1.436-2.072c-0.376-0.478-0.712-0.812-1.01-1.004c-0.297-0.191-0.6-0.325-0.907-0.4
		c-0.226-0.048-0.595-0.072-1.107-0.072h-2.307v6.676H70.212z M72.201,58.092h4.276c0.909,0,1.62-0.094,2.133-0.281
		c0.513-0.188,0.902-0.489,1.169-0.902c0.267-0.414,0.4-0.863,0.4-1.349c0-0.711-0.258-1.295-0.774-1.753
		c-0.517-0.458-1.332-0.688-2.446-0.688h-4.758V58.092z"/>
	<path fill="#FFFFFF" stroke="#FFFFFF" stroke-miterlimit="10" d="M85.685,66.49V51.458h1.989V66.49H85.685z"/>
	<path fill="#FFFFFF" stroke="#FFFFFF" stroke-miterlimit="10" d="M101.907,61.22l1.989,0.503c-0.417,1.634-1.167,2.879-2.251,3.737
		c-1.083,0.857-2.408,1.286-3.973,1.286c-1.62,0-2.938-0.329-3.953-0.989c-1.016-0.659-1.788-1.614-2.317-2.866
		c-0.53-1.25-0.795-2.594-0.795-4.029c0-1.565,0.299-2.931,0.897-4.097c0.598-1.165,1.449-2.051,2.553-2.655
		c1.104-0.605,2.319-0.908,3.646-0.908c1.504,0,2.769,0.384,3.794,1.148c1.025,0.767,1.74,1.843,2.143,3.23l-1.958,0.461
		c-0.349-1.093-0.854-1.89-1.518-2.389s-1.497-0.748-2.502-0.748c-1.155,0-2.121,0.276-2.896,0.83
		c-0.776,0.554-1.321,1.297-1.636,2.23c-0.314,0.933-0.472,1.896-0.472,2.887c0,1.278,0.186,2.394,0.559,3.348
		c0.373,0.953,0.952,1.666,1.738,2.138s1.637,0.708,2.553,0.708c1.114,0,2.058-0.321,2.83-0.965
		C101.11,63.438,101.633,62.484,101.907,61.22z"/>
	<path fill="#FFFFFF" stroke="#FFFFFF" stroke-miterlimit="10" d="M106.685,66.49V51.458h1.989V66.49H106.685z"/>
	<path fill="#FFFFFF" stroke="#FFFFFF" stroke-miterlimit="10" d="M116.006,66.49V53.232h-4.953v-1.774h11.916v1.774h-4.974V66.49
		H116.006z"/>
	<path fill="#FFFFFF" stroke="#FFFFFF" stroke-miterlimit="10" d="M129.244,66.49v-6.367l-5.794-8.665h2.42l2.964,4.532
		c0.546,0.848,1.056,1.695,1.527,2.543c0.451-0.786,0.998-1.672,1.641-2.656l2.912-4.419h2.317l-5.999,8.665v6.367H129.244z"/>
	<path fill="#FFFFFF" stroke="#FFFFFF" stroke-miterlimit="10" d="M144.471,66.49V51.458h5.671c0.997,0,1.76,0.048,2.286,0.144
		c0.738,0.123,1.356,0.357,1.856,0.702c0.498,0.346,0.9,0.829,1.204,1.451c0.305,0.622,0.456,1.306,0.456,2.051
		c0,1.278-0.406,2.36-1.22,3.245c-0.813,0.886-2.283,1.328-4.409,1.328h-3.855v6.111H144.471z M146.46,58.605h3.887
		c1.284,0,2.197-0.239,2.737-0.719c0.54-0.478,0.81-1.151,0.81-2.02c0-0.629-0.158-1.167-0.477-1.615
		c-0.317-0.447-0.736-0.743-1.256-0.887c-0.335-0.089-0.953-0.133-1.855-0.133h-3.846V58.605z"/>
	<path fill="#FFFFFF" stroke="#FFFFFF" stroke-miterlimit="10" d="M158.508,66.49V51.458h6.666c1.339,0,2.357,0.135,3.055,0.405
		c0.697,0.27,1.255,0.747,1.672,1.43c0.417,0.685,0.625,1.439,0.625,2.267c0,1.066-0.345,1.966-1.035,2.696
		c-0.69,0.732-1.757,1.197-3.199,1.395c0.526,0.254,0.926,0.503,1.199,0.749c0.581,0.533,1.132,1.2,1.651,1.999l2.614,4.092h-2.502
		l-1.988-3.127c-0.582-0.902-1.061-1.593-1.436-2.072c-0.377-0.478-0.713-0.812-1.011-1.004c-0.297-0.191-0.6-0.325-0.907-0.4
		c-0.226-0.048-0.595-0.072-1.107-0.072h-2.307v6.676H158.508z M160.498,58.092h4.275c0.909,0,1.62-0.094,2.133-0.281
		c0.513-0.188,0.902-0.489,1.169-0.902c0.267-0.414,0.399-0.863,0.399-1.349c0-0.711-0.258-1.295-0.773-1.753
		c-0.517-0.458-1.332-0.688-2.445-0.688h-4.758V58.092z"/>
	<path fill="#FFFFFF" stroke="#FFFFFF" stroke-miterlimit="10" d="M173.982,66.49V51.458h1.988V66.49H173.982z"/>
	<path fill="#FFFFFF" stroke="#FFFFFF" stroke-miterlimit="10" d="M190.203,61.22l1.989,0.503c-0.417,1.634-1.167,2.879-2.251,3.737
		c-1.083,0.857-2.408,1.286-3.973,1.286c-1.621,0-2.938-0.329-3.953-0.989c-1.016-0.659-1.788-1.614-2.317-2.866
		c-0.53-1.25-0.795-2.594-0.795-4.029c0-1.565,0.299-2.931,0.897-4.097c0.598-1.165,1.449-2.051,2.553-2.655
		c1.104-0.605,2.319-0.908,3.646-0.908c1.504,0,2.769,0.384,3.794,1.148c1.025,0.767,1.739,1.843,2.143,3.23l-1.958,0.461
		c-0.349-1.093-0.854-1.89-1.518-2.389s-1.497-0.748-2.502-0.748c-1.155,0-2.121,0.276-2.896,0.83
		c-0.776,0.554-1.321,1.297-1.636,2.23c-0.314,0.933-0.472,1.896-0.472,2.887c0,1.278,0.187,2.394,0.559,3.348
		c0.373,0.953,0.952,1.666,1.738,2.138s1.637,0.708,2.554,0.708c1.113,0,2.057-0.321,2.83-0.965
		C189.406,63.438,189.93,62.484,190.203,61.22z"/>
	<path fill="#FFFFFF" stroke="#FFFFFF" stroke-miterlimit="10" d="M194.685,66.49V51.458h10.869v1.774h-8.88v4.604h8.316V59.6
		h-8.316v5.117h9.229v1.773H194.685z"/>
</g>
</svg>
