<?xml version="1.0" encoding="utf-8"?>
<!-- Generator: Adobe Illustrator 16.0.0, SVG Export Plug-In . SVG Version: 6.00 Build 0)  -->
<!DOCTYPE svg PUBLIC "-//W3C//DTD SVG 1.1//EN" "http://www.w3.org/Graphics/SVG/1.1/DTD/svg11.dtd">
<svg version="1.1" id="Layer_1" xmlns="http://www.w3.org/2000/svg" xmlns:xlink="http://www.w3.org/1999/xlink" x="0px" y="0px"
	 width="280.67px" height="15.337px" viewBox="0 0 280.67 15.337" enable-background="new 0 0 280.67 15.337" xml:space="preserve">
<g>
	<path fill="#FFFFFF" d="M7.655,8.016h5.607v0.448c0,1.02-0.12,1.922-0.36,2.707c-0.234,0.727-0.63,1.406-1.187,2.039
		c-1.26,1.418-2.862,2.127-4.808,2.127c-1.898,0-3.524-0.686-4.878-2.057C0.677,11.903,0,10.251,0,8.323
		c0-1.969,0.688-3.639,2.065-5.01c1.377-1.377,3.053-2.065,5.027-2.065c1.061,0,2.051,0.217,2.971,0.65
		c0.879,0.434,1.743,1.137,2.593,2.109l-1.459,1.397c-1.113-1.482-2.47-2.224-4.069-2.224c-1.436,0-2.64,0.495-3.612,1.485
		C2.543,5.64,2.057,6.858,2.057,8.323c0,1.512,0.542,2.757,1.626,3.735c1.014,0.908,2.112,1.362,3.296,1.362
		c1.008,0,1.913-0.34,2.716-1.02c0.803-0.686,1.251-1.506,1.345-2.461H7.655V8.016z"/>
	<path fill="#FFFFFF" d="M23.256,11.268h-6.135c0.053,0.703,0.281,1.263,0.686,1.679c0.404,0.41,0.923,0.615,1.556,0.615
		c0.492,0,0.899-0.117,1.222-0.352c0.316-0.234,0.677-0.668,1.081-1.301l1.67,0.932c-0.258,0.439-0.53,0.816-0.817,1.13
		s-0.595,0.57-0.923,0.773c-0.328,0.201-0.683,0.35-1.063,0.443s-0.794,0.141-1.239,0.141c-1.277,0-2.303-0.41-3.076-1.23
		c-0.773-0.826-1.16-1.922-1.16-3.287c0-1.354,0.375-2.449,1.125-3.287c0.756-0.826,1.758-1.239,3.006-1.239
		c1.26,0,2.256,0.401,2.988,1.204c0.727,0.797,1.09,1.901,1.09,3.313L23.256,11.268z M21.226,9.65
		c-0.275-1.055-0.94-1.582-1.995-1.582c-0.24,0-0.466,0.037-0.677,0.109c-0.211,0.074-0.403,0.18-0.576,0.316
		c-0.173,0.139-0.321,0.304-0.444,0.497s-0.217,0.413-0.281,0.659H21.226z"/>
	<path fill="#FFFFFF" d="M27.615,8.367v6.715h-1.978V8.367h-0.844V6.521h0.844V3.384h1.978v3.138h1.538v1.846H27.615z"/>
	<path fill="#FFFFFF" d="M38.092,8.367v6.715h-1.978V8.367h-0.844V6.521h0.844V3.384h1.978v3.138h1.538v1.846H38.092z"/>
	<path fill="#FFFFFF" d="M41.335,0.237h1.978v6.996c0.703-0.633,1.479-0.949,2.329-0.949c0.967,0,1.74,0.313,2.32,0.94
		C48.454,7.77,48.7,8.64,48.7,9.835v5.247h-1.978V10.02c0-0.686-0.122-1.182-0.365-1.49c-0.243-0.307-0.634-0.461-1.173-0.461
		c-0.691,0-1.178,0.214-1.459,0.642c-0.275,0.434-0.413,1.178-0.413,2.232v4.14h-1.978V0.237z"/>
	<path fill="#FFFFFF" d="M59.001,11.268h-6.135c0.053,0.703,0.281,1.263,0.686,1.679c0.404,0.41,0.923,0.615,1.556,0.615
		c0.492,0,0.899-0.117,1.222-0.352c0.316-0.234,0.677-0.668,1.081-1.301l1.67,0.932c-0.258,0.439-0.53,0.816-0.817,1.13
		s-0.595,0.57-0.923,0.773c-0.328,0.201-0.683,0.35-1.063,0.443s-0.794,0.141-1.239,0.141c-1.277,0-2.303-0.41-3.076-1.23
		c-0.773-0.826-1.16-1.922-1.16-3.287c0-1.354,0.375-2.449,1.125-3.287c0.756-0.826,1.758-1.239,3.006-1.239
		c1.26,0,2.256,0.401,2.988,1.204c0.727,0.797,1.09,1.901,1.09,3.313L59.001,11.268z M56.971,9.65
		c-0.275-1.055-0.94-1.582-1.995-1.582c-0.24,0-0.466,0.037-0.677,0.109c-0.211,0.074-0.403,0.18-0.576,0.316
		c-0.173,0.139-0.321,0.304-0.444,0.497s-0.217,0.413-0.281,0.659H56.971z"/>
	<path fill="#FFFFFF" d="M68.766,8.367v6.715h-1.986V8.367h-0.703V6.521h0.703V3.217c0-1.078,0.188-1.84,0.562-2.285
		C67.857,0.311,68.607,0,69.592,0c0.352,0,0.794,0.103,1.327,0.308v2.021l-0.202-0.105c-0.428-0.217-0.779-0.325-1.055-0.325
		c-0.352,0-0.589,0.126-0.712,0.378c-0.123,0.246-0.185,0.721-0.185,1.424v2.821h2.153v1.846H68.766z"/>
	<path fill="#FFFFFF" d="M78.645,6.521h1.986v8.561h-1.986v-0.896c-0.814,0.762-1.69,1.143-2.628,1.143
		c-1.184,0-2.162-0.428-2.936-1.283c-0.768-0.873-1.151-1.963-1.151-3.27c0-1.283,0.384-2.353,1.151-3.208s1.729-1.283,2.883-1.283
		c0.996,0,1.89,0.41,2.681,1.23V6.521z M73.951,10.775c0,0.82,0.22,1.488,0.659,2.004c0.451,0.521,1.02,0.782,1.705,0.782
		c0.732,0,1.324-0.252,1.775-0.756c0.451-0.521,0.677-1.184,0.677-1.986s-0.226-1.465-0.677-1.986
		c-0.451-0.51-1.037-0.765-1.758-0.765c-0.68,0-1.248,0.258-1.705,0.773C74.177,9.363,73.951,10.008,73.951,10.775z"/>
	<path fill="#FFFFFF" d="M89.789,6.891v2.628c-0.451-0.551-0.855-0.929-1.213-1.134c-0.352-0.211-0.765-0.316-1.239-0.316
		c-0.744,0-1.362,0.261-1.854,0.782s-0.738,1.175-0.738,1.96c0,0.803,0.237,1.462,0.712,1.978c0.48,0.516,1.093,0.773,1.837,0.773
		c0.475,0,0.894-0.103,1.257-0.308c0.352-0.199,0.765-0.586,1.239-1.16v2.61c-0.803,0.416-1.605,0.624-2.408,0.624
		c-1.324,0-2.432-0.428-3.322-1.283c-0.891-0.861-1.336-1.931-1.336-3.208s0.451-2.355,1.354-3.234s2.01-1.318,3.322-1.318
		C88.242,6.284,89.039,6.486,89.789,6.891z"/>
	<path fill="#FFFFFF" d="M93.744,8.367v6.715h-1.978V8.367h-0.844V6.521h0.844V3.384h1.978v3.138h1.538v1.846H93.744z"/>
	<path fill="#FFFFFF" d="M101.602,7.98l-1.635,0.87C99.709,8.323,99.39,8.06,99.009,8.06c-0.182,0-0.337,0.06-0.466,0.181
		c-0.129,0.119-0.193,0.273-0.193,0.461c0,0.328,0.381,0.653,1.143,0.976c1.049,0.451,1.755,0.867,2.118,1.248
		s0.545,0.894,0.545,1.538c0,0.826-0.305,1.518-0.914,2.074c-0.592,0.527-1.307,0.791-2.145,0.791c-1.436,0-2.452-0.7-3.05-2.101
		l1.688-0.782c0.234,0.41,0.413,0.671,0.536,0.782c0.24,0.223,0.527,0.334,0.861,0.334c0.668,0,1.002-0.305,1.002-0.914
		c0-0.352-0.258-0.68-0.773-0.984c-0.199-0.1-0.398-0.196-0.598-0.29s-0.401-0.19-0.606-0.29c-0.574-0.281-0.979-0.562-1.213-0.844
		c-0.299-0.357-0.448-0.817-0.448-1.38c0-0.744,0.255-1.359,0.765-1.846c0.521-0.486,1.154-0.729,1.898-0.729
		C100.254,6.284,101.068,6.85,101.602,7.98z"/>
	<path fill="#FFFFFF" d="M104.238,14.098c0-0.328,0.12-0.612,0.36-0.853s0.527-0.36,0.861-0.36s0.621,0.12,0.861,0.36
		s0.36,0.527,0.36,0.861c0,0.34-0.12,0.63-0.36,0.87c-0.234,0.234-0.521,0.352-0.861,0.352c-0.346,0-0.636-0.117-0.87-0.352
		S104.238,14.449,104.238,14.098z"/>
	<path fill="#FFFFFF" d="M123.021,1.512v11.646h3.99v1.925h-6.038V1.512H123.021z"/>
	<path fill="#FFFFFF" d="M128.171,10.74c0-1.236,0.442-2.288,1.327-3.155s1.963-1.301,3.234-1.301c1.277,0,2.361,0.437,3.252,1.31
		c0.879,0.873,1.318,1.945,1.318,3.217c0,1.283-0.442,2.358-1.327,3.226c-0.891,0.861-1.983,1.292-3.278,1.292
		c-1.283,0-2.358-0.439-3.226-1.318C128.604,13.143,128.171,12.053,128.171,10.74z M130.192,10.775c0,0.855,0.229,1.532,0.686,2.03
		c0.469,0.504,1.087,0.756,1.854,0.756c0.773,0,1.392-0.249,1.854-0.747s0.694-1.163,0.694-1.995s-0.231-1.497-0.694-1.995
		c-0.469-0.504-1.087-0.756-1.854-0.756c-0.756,0-1.368,0.252-1.837,0.756S130.192,9.979,130.192,10.775z"/>
	<path fill="#FFFFFF" d="M146.057,6.891v2.628c-0.451-0.551-0.855-0.929-1.213-1.134c-0.352-0.211-0.765-0.316-1.239-0.316
		c-0.744,0-1.362,0.261-1.854,0.782s-0.738,1.175-0.738,1.96c0,0.803,0.237,1.462,0.712,1.978c0.48,0.516,1.093,0.773,1.837,0.773
		c0.475,0,0.894-0.103,1.257-0.308c0.352-0.199,0.765-0.586,1.239-1.16v2.61c-0.803,0.416-1.605,0.624-2.408,0.624
		c-1.324,0-2.432-0.428-3.322-1.283c-0.891-0.861-1.336-1.931-1.336-3.208s0.451-2.355,1.354-3.234s2.01-1.318,3.322-1.318
		C144.51,6.284,145.307,6.486,146.057,6.891z"/>
	<path fill="#FFFFFF" d="M150.416,0.237V9.29l2.786-2.769h2.654l-3.718,3.595l3.99,4.966h-2.566l-2.83-3.612l-0.316,0.316v3.296
		h-1.978V0.237H150.416z"/>
	<path fill="#FFFFFF" d="M162.659,2.962c0-0.346,0.126-0.645,0.378-0.896s0.554-0.378,0.905-0.378c0.357,0,0.662,0.126,0.914,0.378
		c0.252,0.246,0.378,0.548,0.378,0.905s-0.126,0.662-0.378,0.914c-0.246,0.252-0.548,0.378-0.905,0.378s-0.662-0.126-0.914-0.378
		S162.659,3.325,162.659,2.962z M164.936,6.521v8.561h-1.978V6.521H164.936z"/>
	<path fill="#FFFFFF" d="M167.44,6.521h1.986v0.791c0.691-0.686,1.471-1.028,2.338-1.028c0.996,0,1.772,0.313,2.329,0.94
		c0.48,0.533,0.721,1.403,0.721,2.61v5.247h-1.986v-4.781c0-0.844-0.117-1.427-0.352-1.749c-0.229-0.328-0.645-0.492-1.248-0.492
		c-0.656,0-1.122,0.217-1.397,0.65c-0.27,0.428-0.404,1.175-0.404,2.241v4.131h-1.986V6.521z"/>
	<path fill="#FFFFFF" d="M189.176,6.521h1.986v8.561h-1.986v-0.896c-0.814,0.762-1.69,1.143-2.628,1.143
		c-1.184,0-2.162-0.428-2.936-1.283c-0.768-0.873-1.151-1.963-1.151-3.27c0-1.283,0.384-2.353,1.151-3.208s1.729-1.283,2.883-1.283
		c0.996,0,1.89,0.41,2.681,1.23V6.521z M184.482,10.775c0,0.82,0.22,1.488,0.659,2.004c0.451,0.521,1.02,0.782,1.705,0.782
		c0.732,0,1.324-0.252,1.775-0.756c0.451-0.521,0.677-1.184,0.677-1.986s-0.226-1.465-0.677-1.986
		c-0.451-0.51-1.037-0.765-1.758-0.765c-0.68,0-1.248,0.258-1.705,0.773C184.708,9.363,184.482,10.008,184.482,10.775z"/>
	<path fill="#FFFFFF" d="M201.261,8.367v6.715h-1.986V8.367h-0.703V6.521h0.703V3.217c0-1.078,0.188-1.84,0.562-2.285
		C200.353,0.311,201.103,0,202.087,0c0.352,0,0.794,0.103,1.327,0.308v2.021l-0.202-0.105c-0.428-0.217-0.779-0.325-1.055-0.325
		c-0.352,0-0.589,0.126-0.712,0.378c-0.123,0.246-0.185,0.721-0.185,1.424v2.821h2.153v1.846H201.261z"/>
	<path fill="#FFFFFF" d="M204.636,2.962c0-0.346,0.126-0.645,0.378-0.896s0.554-0.378,0.905-0.378c0.357,0,0.662,0.126,0.914,0.378
		c0.252,0.246,0.378,0.548,0.378,0.905s-0.126,0.662-0.378,0.914c-0.246,0.252-0.548,0.378-0.905,0.378s-0.662-0.126-0.914-0.378
		S204.636,3.325,204.636,2.962z M206.912,6.521v8.561h-1.978V6.521H206.912z"/>
	<path fill="#FFFFFF" d="M212.071,10.45l-3.076-3.929h2.355l1.907,2.496l1.942-2.496h2.426l-3.164,3.929l3.665,4.632h-2.355
		l-2.514-3.199l-2.575,3.199h-2.417L212.071,10.45z"/>
	<path fill="#FFFFFF" d="M226.969,11.268h-6.135c0.053,0.703,0.281,1.263,0.686,1.679c0.404,0.41,0.923,0.615,1.556,0.615
		c0.492,0,0.899-0.117,1.222-0.352c0.316-0.234,0.677-0.668,1.081-1.301l1.67,0.932c-0.258,0.439-0.53,0.816-0.817,1.13
		s-0.595,0.57-0.923,0.773c-0.328,0.201-0.683,0.35-1.063,0.443s-0.794,0.141-1.239,0.141c-1.277,0-2.303-0.41-3.076-1.23
		c-0.773-0.826-1.16-1.922-1.16-3.287c0-1.354,0.375-2.449,1.125-3.287c0.756-0.826,1.758-1.239,3.006-1.239
		c1.26,0,2.256,0.401,2.988,1.204c0.727,0.797,1.09,1.901,1.09,3.313L226.969,11.268z M224.938,9.65
		c-0.275-1.055-0.94-1.582-1.995-1.582c-0.24,0-0.466,0.037-0.677,0.109c-0.211,0.074-0.403,0.18-0.576,0.316
		c-0.173,0.139-0.32,0.304-0.443,0.497s-0.217,0.413-0.281,0.659H224.938z"/>
	<path fill="#FFFFFF" d="M235.441,0.237h1.986v14.845h-1.986v-0.896c-0.779,0.762-1.661,1.143-2.646,1.143
		c-1.172,0-2.145-0.428-2.918-1.283c-0.768-0.873-1.151-1.963-1.151-3.27c0-1.277,0.384-2.344,1.151-3.199
		c0.762-0.861,1.72-1.292,2.874-1.292c1.002,0,1.898,0.41,2.689,1.23V0.237z M230.748,10.775c0,0.82,0.22,1.488,0.659,2.004
		c0.451,0.521,1.02,0.782,1.705,0.782c0.732,0,1.324-0.252,1.775-0.756c0.451-0.521,0.677-1.184,0.677-1.986
		s-0.226-1.465-0.677-1.986c-0.451-0.51-1.037-0.765-1.758-0.765c-0.68,0-1.248,0.258-1.705,0.773
		C230.974,9.363,230.748,10.008,230.748,10.775z"/>
	<path fill="#FFFFFF" d="M245.479,6.521h1.978v0.765c0.363-0.381,0.686-0.642,0.967-0.782c0.287-0.146,0.627-0.22,1.02-0.22
		c0.521,0,1.066,0.17,1.635,0.51l-0.905,1.811c-0.375-0.27-0.741-0.404-1.099-0.404c-1.078,0-1.617,0.814-1.617,2.443v4.438h-1.978
		V6.521z"/>
	<path fill="#FFFFFF" d="M258.398,6.521h1.986v8.561h-1.986v-0.896c-0.814,0.762-1.69,1.143-2.628,1.143
		c-1.184,0-2.162-0.428-2.936-1.283c-0.768-0.873-1.151-1.963-1.151-3.27c0-1.283,0.384-2.353,1.151-3.208s1.729-1.283,2.883-1.283
		c0.996,0,1.89,0.41,2.681,1.23V6.521z M253.705,10.775c0,0.82,0.22,1.488,0.659,2.004c0.451,0.521,1.02,0.782,1.705,0.782
		c0.732,0,1.324-0.252,1.775-0.756c0.451-0.521,0.677-1.184,0.677-1.986s-0.226-1.465-0.677-1.986
		c-0.451-0.51-1.037-0.765-1.758-0.765c-0.68,0-1.248,0.258-1.705,0.773C253.931,9.363,253.705,10.008,253.705,10.775z"/>
	<path fill="#FFFFFF" d="M264.92,8.367v6.715h-1.978V8.367h-0.844V6.521h0.844V3.384h1.978v3.138h1.538v1.846H264.92z"/>
	<path fill="#FFFFFF" d="M275.757,11.268h-6.135c0.053,0.703,0.281,1.263,0.686,1.679c0.404,0.41,0.923,0.615,1.556,0.615
		c0.492,0,0.899-0.117,1.222-0.352c0.316-0.234,0.677-0.668,1.081-1.301l1.67,0.932c-0.258,0.439-0.53,0.816-0.817,1.13
		s-0.595,0.57-0.923,0.773c-0.328,0.201-0.683,0.35-1.063,0.443s-0.794,0.141-1.239,0.141c-1.277,0-2.303-0.41-3.076-1.23
		c-0.773-0.826-1.16-1.922-1.16-3.287c0-1.354,0.375-2.449,1.125-3.287c0.756-0.826,1.758-1.239,3.006-1.239
		c1.26,0,2.256,0.401,2.988,1.204c0.727,0.797,1.09,1.901,1.09,3.313L275.757,11.268z M273.727,9.65
		c-0.275-1.055-0.94-1.582-1.995-1.582c-0.24,0-0.466,0.037-0.677,0.109c-0.211,0.074-0.403,0.18-0.576,0.316
		c-0.173,0.139-0.32,0.304-0.443,0.497s-0.217,0.413-0.281,0.659H273.727z"/>
	<path fill="#FFFFFF" d="M278.227,14.098c0-0.328,0.12-0.612,0.36-0.853s0.527-0.36,0.861-0.36s0.621,0.12,0.861,0.36
		s0.36,0.527,0.36,0.861c0,0.34-0.12,0.63-0.36,0.87c-0.234,0.234-0.521,0.352-0.861,0.352c-0.346,0-0.636-0.117-0.87-0.352
		S278.227,14.449,278.227,14.098z"/>
</g>
</svg>
