<?xml version="1.0" encoding="utf-8"?>
<!-- Generator: Adobe Illustrator 16.0.0, SVG Export Plug-In . SVG Version: 6.00 Build 0)  -->
<!DOCTYPE svg PUBLIC "-//W3C//DTD SVG 1.1//EN" "http://www.w3.org/Graphics/SVG/1.1/DTD/svg11.dtd">
<svg version="1.1" id="Layer_1" xmlns="http://www.w3.org/2000/svg" xmlns:xlink="http://www.w3.org/1999/xlink" x="0px" y="0px"
	 width="137.932px" height="143.173px" viewBox="0 0 137.932 143.173" enable-background="new 0 0 137.932 143.173"
	 xml:space="preserve">
<g>
	<path fill="#FFFFFF" stroke="#FFFFFF" stroke-miterlimit="10" d="M1.482,16.104V1.071h5.178c1.169,0,2.061,0.072,2.676,0.215
		c0.861,0.198,1.596,0.557,2.205,1.077c0.793,0.67,1.386,1.526,1.779,2.568c0.393,1.043,0.59,2.234,0.59,3.574
		c0,1.142-0.133,2.153-0.4,3.035s-0.608,1.612-1.025,2.189c-0.417,0.578-0.874,1.033-1.369,1.364
		c-0.496,0.332-1.094,0.583-1.795,0.753s-1.505,0.256-2.415,0.256H1.482z M3.472,14.33h3.209c0.991,0,1.769-0.092,2.333-0.277
		c0.564-0.185,1.014-0.444,1.349-0.779c0.472-0.472,0.839-1.105,1.103-1.902c0.263-0.796,0.395-1.762,0.395-2.896
		c0-1.572-0.258-2.78-0.774-3.625c-0.516-0.844-1.143-1.41-1.881-1.697C8.67,2.948,7.812,2.845,6.63,2.845H3.472V14.33z"/>
	<path fill="#FFFFFF" stroke="#FFFFFF" stroke-miterlimit="10" d="M16.043,8.782c0-2.495,0.67-4.448,2.01-5.86
		c1.34-1.411,3.069-2.117,5.188-2.117c1.388,0,2.639,0.332,3.753,0.995s1.963,1.588,2.548,2.774
		c0.584,1.186,0.876,2.531,0.876,4.035c0,1.524-0.308,2.888-0.923,4.091s-1.487,2.114-2.615,2.732
		c-1.128,0.619-2.345,0.928-3.65,0.928c-1.415,0-2.68-0.342-3.794-1.025s-1.958-1.617-2.533-2.799S16.043,10.102,16.043,8.782z
		 M18.094,8.813c0,1.812,0.487,3.239,1.461,4.281c0.974,1.043,2.196,1.564,3.666,1.564c1.497,0,2.729-0.526,3.697-1.579
		c0.967-1.053,1.451-2.546,1.451-4.481c0-1.224-0.207-2.292-0.621-3.204c-0.414-0.913-1.019-1.62-1.814-2.123
		c-0.797-0.502-1.69-0.753-2.682-0.753c-1.408,0-2.62,0.484-3.635,1.451C18.601,4.936,18.094,6.55,18.094,8.813z"/>
	<path fill="#FFFFFF" stroke="#FFFFFF" stroke-miterlimit="10" d="M32.962,16.104V1.071h2.041l7.896,11.802V1.071h1.907v15.032
		h-2.041L34.869,4.291v11.812H32.962z"/>
	<path fill="#FFFFFF" stroke="#FFFFFF" stroke-miterlimit="10" d="M47.799,3.061V0.917h1.979v1.692c0,0.916-0.106,1.576-0.318,1.979
		c-0.294,0.554-0.752,0.971-1.374,1.251l-0.451-0.728c0.369-0.15,0.644-0.388,0.825-0.713c0.181-0.324,0.282-0.771,0.303-1.338
		H47.799z"/>
	<path fill="#FFFFFF" stroke="#FFFFFF" stroke-miterlimit="10" d="M56.639,16.104V2.845h-4.953V1.071h11.915v1.774h-4.974v13.258
		H56.639z"/>
	<path fill="#FFFFFF" stroke="#FFFFFF" stroke-miterlimit="10" d="M0.806,36.474l1.876-0.164c0.089,0.752,0.295,1.369,0.621,1.851
		c0.324,0.481,0.829,0.871,1.512,1.169c0.684,0.297,1.453,0.446,2.307,0.446c0.759,0,1.429-0.113,2.01-0.338
		s1.013-0.535,1.297-0.928s0.426-0.822,0.426-1.287c0-0.472-0.137-0.883-0.41-1.235S9.72,35.339,9.091,35.1
		c-0.403-0.157-1.295-0.401-2.676-0.733s-2.348-0.645-2.902-0.938c-0.718-0.376-1.253-0.842-1.604-1.399
		c-0.353-0.557-0.528-1.181-0.528-1.872c0-0.759,0.215-1.468,0.646-2.127s1.06-1.161,1.887-1.502s1.747-0.513,2.758-0.513
		c1.114,0,2.097,0.179,2.948,0.539c0.851,0.358,1.505,0.887,1.963,1.584s0.704,1.487,0.738,2.369l-1.907,0.144
		c-0.103-0.95-0.45-1.668-1.041-2.153c-0.592-0.485-1.465-0.728-2.62-0.728c-1.203,0-2.08,0.221-2.63,0.661
		c-0.551,0.441-0.826,0.973-0.826,1.595c0,0.54,0.195,0.984,0.584,1.333c0.383,0.349,1.382,0.706,2.999,1.071
		c1.617,0.366,2.726,0.686,3.328,0.959c0.875,0.403,1.521,0.915,1.938,1.533s0.625,1.331,0.625,2.138c0,0.8-0.229,1.554-0.687,2.261
		c-0.458,0.708-1.116,1.258-1.974,1.651c-0.858,0.393-1.824,0.589-2.897,0.589c-1.36,0-2.5-0.198-3.419-0.595
		c-0.92-0.396-1.641-0.993-2.164-1.79C1.108,38.38,0.833,37.479,0.806,36.474z"/>
	<path fill="#FFFFFF" stroke="#FFFFFF" stroke-miterlimit="10" d="M15.53,41.304V26.271h10.869v1.774h-8.88v4.604h8.316v1.764H17.52
		v5.117h9.229v1.774H15.53z"/>
	<path fill="#FFFFFF" stroke="#FFFFFF" stroke-miterlimit="10" d="M33.321,41.304V28.045h-4.953v-1.774h11.915v1.774H35.31v13.258
		H33.321z"/>
	<path fill="#FFFFFF" stroke="#FFFFFF" stroke-miterlimit="10" d="M46.148,41.304V28.045h-4.953v-1.774H53.11v1.774h-4.973v13.258
		H46.148z"/>
	<path fill="#FFFFFF" stroke="#FFFFFF" stroke-miterlimit="10" d="M55.069,41.304V26.271h1.989V39.53h7.403v1.774H55.069z"/>
	<path fill="#FFFFFF" stroke="#FFFFFF" stroke-miterlimit="10" d="M66.871,41.304V26.271H77.74v1.774h-8.88v4.604h8.316v1.764H68.86
		v5.117h9.229v1.774H66.871z"/>
	<path fill="#FFFFFF" stroke="#FFFFFF" stroke-miterlimit="10" d="M1.585,66.503V51.471h10.141v1.774H3.574V57.9h7.055v1.774H3.574
		v6.829H1.585z"/>
	<path fill="#FFFFFF" stroke="#FFFFFF" stroke-miterlimit="10" d="M13.705,59.182c0-2.495,0.67-4.448,2.01-5.86
		c1.34-1.411,3.069-2.117,5.188-2.117c1.388,0,2.639,0.332,3.753,0.995s1.963,1.588,2.548,2.774
		c0.584,1.186,0.876,2.531,0.876,4.035c0,1.524-0.308,2.888-0.923,4.091s-1.487,2.114-2.615,2.732
		c-1.128,0.619-2.345,0.928-3.65,0.928c-1.415,0-2.68-0.342-3.794-1.025s-1.958-1.617-2.533-2.799S13.705,60.501,13.705,59.182z
		 M15.756,59.213c0,1.812,0.487,3.239,1.461,4.281c0.974,1.043,2.196,1.564,3.666,1.564c1.497,0,2.729-0.526,3.697-1.579
		c0.967-1.053,1.451-2.546,1.451-4.481c0-1.224-0.207-2.292-0.621-3.204c-0.414-0.913-1.019-1.62-1.814-2.123
		c-0.797-0.502-1.69-0.753-2.682-0.753c-1.408,0-2.62,0.484-3.635,1.451C16.263,55.335,15.756,56.95,15.756,59.213z"/>
	<path fill="#FFFFFF" stroke="#FFFFFF" stroke-miterlimit="10" d="M30.675,66.503V51.471h6.665c1.34,0,2.358,0.135,3.056,0.405
		s1.254,0.747,1.671,1.43s0.625,1.439,0.625,2.266c0,1.066-0.345,1.965-1.036,2.697s-1.757,1.196-3.199,1.395
		c0.526,0.253,0.926,0.502,1.2,0.749c0.581,0.533,1.131,1.2,1.651,2l2.615,4.091h-2.502l-1.989-3.127
		c-0.581-0.902-1.06-1.593-1.436-2.071s-0.712-0.813-1.01-1.005c-0.297-0.191-0.6-0.325-0.907-0.4
		c-0.226-0.048-0.595-0.072-1.107-0.072h-2.307v6.675H30.675z M32.665,58.105h4.276c0.909,0,1.62-0.094,2.133-0.282
		s0.902-0.489,1.169-0.902s0.4-0.863,0.4-1.349c0-0.711-0.258-1.295-0.774-1.753c-0.517-0.458-1.332-0.687-2.446-0.687h-4.758
		V58.105z"/>
	<path fill="#FFFFFF" stroke="#FFFFFF" stroke-miterlimit="10" d="M55.501,66.503v-6.368l-5.794-8.665h2.419l2.965,4.532
		c0.545,0.848,1.055,1.695,1.527,2.543c0.451-0.786,0.998-1.671,1.641-2.656l2.912-4.419h2.316l-5.998,8.665v6.368H55.501z"/>
	<path fill="#FFFFFF" stroke="#FFFFFF" stroke-miterlimit="10" d="M64.667,59.182c0-2.495,0.669-4.448,2.01-5.86
		c1.339-1.411,3.068-2.117,5.188-2.117c1.388,0,2.639,0.332,3.754,0.995c1.113,0.663,1.963,1.588,2.548,2.774
		c0.584,1.186,0.876,2.531,0.876,4.035c0,1.524-0.307,2.888-0.922,4.091s-1.487,2.114-2.615,2.732
		c-1.128,0.619-2.345,0.928-3.65,0.928c-1.415,0-2.68-0.342-3.794-1.025s-1.958-1.617-2.532-2.799S64.667,60.501,64.667,59.182z
		 M66.718,59.213c0,1.812,0.486,3.239,1.461,4.281c0.974,1.043,2.195,1.564,3.666,1.564c1.496,0,2.729-0.526,3.696-1.579
		c0.967-1.053,1.45-2.546,1.45-4.481c0-1.224-0.206-2.292-0.62-3.204c-0.413-0.913-1.019-1.62-1.814-2.123
		c-0.797-0.502-1.69-0.753-2.682-0.753c-1.408,0-2.62,0.484-3.635,1.451C67.225,55.335,66.718,56.95,66.718,59.213z"/>
	<path fill="#FFFFFF" stroke="#FFFFFF" stroke-miterlimit="10" d="M91.471,51.471h1.989v8.685c0,1.511-0.171,2.71-0.513,3.599
		s-0.959,1.612-1.851,2.169c-0.893,0.557-2.063,0.835-3.513,0.835c-1.408,0-2.56-0.243-3.455-0.728s-1.535-1.188-1.918-2.107
		c-0.383-0.919-0.574-2.175-0.574-3.768v-8.685h1.99v8.675c0,1.306,0.121,2.268,0.363,2.887c0.243,0.619,0.66,1.095,1.251,1.43
		c0.592,0.335,1.314,0.502,2.169,0.502c1.463,0,2.505-0.332,3.127-0.995s0.934-1.938,0.934-3.825V51.471z"/>
	<path fill="#FFFFFF" stroke="#FFFFFF" stroke-miterlimit="10" d="M96.802,66.503V51.471h6.666c1.339,0,2.357,0.135,3.055,0.405
		s1.255,0.747,1.672,1.43s0.625,1.439,0.625,2.266c0,1.066-0.345,1.965-1.035,2.697s-1.757,1.196-3.199,1.395
		c0.526,0.253,0.926,0.502,1.199,0.749c0.581,0.533,1.132,1.2,1.651,2l2.614,4.091h-2.502l-1.988-3.127
		c-0.582-0.902-1.061-1.593-1.436-2.071c-0.377-0.479-0.713-0.813-1.011-1.005c-0.297-0.191-0.6-0.325-0.907-0.4
		c-0.226-0.048-0.595-0.072-1.107-0.072h-2.307v6.675H96.802z M98.792,58.105h4.275c0.909,0,1.62-0.094,2.133-0.282
		s0.902-0.489,1.169-0.902s0.399-0.863,0.399-1.349c0-0.711-0.258-1.295-0.773-1.753c-0.517-0.458-1.332-0.687-2.445-0.687h-4.758
		V58.105z"/>
	<path fill="#FFFFFF" stroke="#FFFFFF" stroke-miterlimit="10" d="M11.347,76.671h1.989v8.685c0,1.512-0.171,2.711-0.513,3.6
		s-0.959,1.611-1.851,2.169c-0.893,0.557-2.063,0.835-3.512,0.835c-1.408,0-2.56-0.242-3.456-0.728s-1.535-1.188-1.917-2.107
		c-0.383-0.919-0.574-2.175-0.574-3.769v-8.685h1.989v8.675c0,1.306,0.121,2.268,0.364,2.887c0.243,0.618,0.66,1.096,1.251,1.43
		c0.591,0.336,1.314,0.503,2.169,0.503c1.463,0,2.505-0.331,3.127-0.995c0.622-0.662,0.933-1.938,0.933-3.824V76.671z"/>
	<path fill="#FFFFFF" stroke="#FFFFFF" stroke-miterlimit="10" d="M20.473,91.703V78.445H15.52v-1.774h11.915v1.774h-4.973v13.258
		H20.473z"/>
	<path fill="#FFFFFF" stroke="#FFFFFF" stroke-miterlimit="10" d="M29.814,91.703V76.671h1.989v15.032H29.814z"/>
	<path fill="#FFFFFF" stroke="#FFFFFF" stroke-miterlimit="10" d="M35.228,91.703V76.671h1.989V89.93h7.403v1.773H35.228z"/>
	<path fill="#FFFFFF" stroke="#FFFFFF" stroke-miterlimit="10" d="M47.328,91.703V76.671h1.989v15.032H47.328z"/>
	<path fill="#FFFFFF" stroke="#FFFFFF" stroke-miterlimit="10" d="M56.649,91.703V78.445h-4.953v-1.774h11.915v1.774h-4.974v13.258
		H56.649z"/>
	<path fill="#FFFFFF" stroke="#FFFFFF" stroke-miterlimit="10" d="M69.887,91.703v-6.367l-5.794-8.665h2.42l2.964,4.532
		c0.546,0.848,1.056,1.695,1.527,2.543c0.451-0.786,0.998-1.672,1.641-2.656l2.912-4.419h2.317l-5.999,8.665v6.367H69.887z"/>
	<path fill="#FFFFFF" stroke="#FFFFFF" stroke-miterlimit="10" d="M79.31,78.66v-2.143h1.979v1.692c0,0.916-0.105,1.576-0.317,1.979
		c-0.294,0.554-0.752,0.971-1.374,1.251l-0.451-0.729c0.369-0.15,0.645-0.388,0.825-0.713c0.182-0.324,0.282-0.771,0.303-1.338
		H79.31z"/>
	<path fill="#FFFFFF" stroke="#FFFFFF" stroke-miterlimit="10" d="M83.647,86.873l1.877-0.164c0.088,0.753,0.295,1.369,0.62,1.852
		c0.324,0.481,0.828,0.871,1.513,1.169c0.683,0.297,1.452,0.446,2.307,0.446c0.759,0,1.429-0.113,2.01-0.339
		s1.014-0.535,1.297-0.928c0.284-0.394,0.426-0.822,0.426-1.287c0-0.472-0.137-0.884-0.41-1.235
		c-0.273-0.353-0.725-0.647-1.354-0.887c-0.403-0.157-1.296-0.402-2.676-0.733c-1.382-0.332-2.349-0.645-2.902-0.938
		c-0.718-0.376-1.253-0.843-1.604-1.399c-0.353-0.558-0.528-1.181-0.528-1.872c0-0.759,0.215-1.468,0.646-2.127
		c0.43-0.66,1.059-1.161,1.887-1.502c0.826-0.342,1.746-0.513,2.758-0.513c1.114,0,2.097,0.179,2.948,0.539
		c0.851,0.358,1.505,0.887,1.964,1.584c0.457,0.697,0.703,1.487,0.738,2.369l-1.908,0.144c-0.102-0.95-0.449-1.668-1.04-2.153
		c-0.592-0.485-1.465-0.728-2.62-0.728c-1.203,0-2.08,0.221-2.63,0.661c-0.551,0.441-0.825,0.973-0.825,1.595
		c0,0.54,0.194,0.984,0.584,1.333c0.383,0.349,1.383,0.706,2.999,1.071c1.617,0.366,2.726,0.686,3.327,0.959
		c0.875,0.403,1.521,0.914,1.938,1.533c0.417,0.618,0.626,1.331,0.626,2.138c0,0.8-0.229,1.554-0.688,2.261
		c-0.458,0.708-1.116,1.258-1.974,1.651c-0.858,0.393-1.824,0.589-2.897,0.589c-1.36,0-2.5-0.198-3.419-0.594
		c-0.92-0.396-1.641-0.993-2.164-1.79C83.95,88.779,83.675,87.879,83.647,86.873z"/>
	<path fill="#FFFFFF" stroke="#FFFFFF" stroke-miterlimit="10" d="M1.523,116.903v-15.032h10.869v1.774h-8.88v4.604h8.316v1.764
		H3.513v5.117h9.229v1.773H1.523z"/>
	<path fill="#FFFFFF" stroke="#FFFFFF" stroke-miterlimit="10" d="M15.407,116.903v-15.032h1.989v13.259H24.8v1.773H15.407z"/>
	<path fill="#FFFFFF" stroke="#FFFFFF" stroke-miterlimit="10" d="M27.209,116.903v-15.032h10.869v1.774h-8.88v4.604h8.316v1.764
		h-8.316v5.117h9.229v1.773H27.209z"/>
	<path fill="#FFFFFF" stroke="#FFFFFF" stroke-miterlimit="10" d="M51.901,111.633l1.988,0.503c-0.416,1.634-1.166,2.879-2.25,3.737
		c-1.084,0.857-2.408,1.286-3.974,1.286c-1.62,0-2.938-0.329-3.953-0.989c-1.016-0.659-1.788-1.614-2.317-2.866
		c-0.53-1.25-0.795-2.594-0.795-4.029c0-1.565,0.299-2.931,0.897-4.097c0.598-1.165,1.449-2.051,2.553-2.655
		c1.104-0.605,2.319-0.908,3.646-0.908c1.504,0,2.769,0.384,3.794,1.148c1.025,0.767,1.738,1.843,2.143,3.23l-1.959,0.461
		c-0.348-1.093-0.854-1.89-1.517-2.389c-0.663-0.499-1.497-0.748-2.502-0.748c-1.155,0-2.121,0.276-2.896,0.83
		c-0.776,0.554-1.321,1.297-1.636,2.23c-0.314,0.933-0.472,1.896-0.472,2.887c0,1.278,0.186,2.394,0.559,3.348
		c0.373,0.953,0.952,1.666,1.738,2.138s1.637,0.708,2.553,0.708c1.114,0,2.058-0.321,2.83-0.965
		C51.104,113.852,51.628,112.897,51.901,111.633z"/>
	<path fill="#FFFFFF" stroke="#FFFFFF" stroke-miterlimit="10" d="M60.166,116.903v-13.258h-4.953v-1.774h11.915v1.774h-4.974
		v13.258H60.166z"/>
	<path fill="#FFFFFF" stroke="#FFFFFF" stroke-miterlimit="10" d="M69.198,116.903v-15.032h6.666c1.339,0,2.357,0.135,3.055,0.405
		c0.697,0.27,1.255,0.747,1.672,1.43c0.417,0.685,0.625,1.439,0.625,2.267c0,1.066-0.345,1.966-1.035,2.696
		c-0.69,0.732-1.757,1.197-3.199,1.395c0.526,0.254,0.926,0.503,1.199,0.749c0.581,0.533,1.132,1.2,1.651,1.999l2.614,4.092h-2.502
		l-1.988-3.127c-0.582-0.902-1.061-1.593-1.436-2.072c-0.377-0.478-0.713-0.812-1.011-1.004c-0.297-0.191-0.6-0.325-0.907-0.4
		c-0.226-0.048-0.595-0.072-1.107-0.072h-2.307v6.676H69.198z M71.188,108.505h4.275c0.909,0,1.62-0.094,2.133-0.281
		c0.513-0.188,0.902-0.489,1.169-0.902c0.267-0.414,0.399-0.863,0.399-1.349c0-0.711-0.258-1.295-0.773-1.753
		c-0.517-0.458-1.332-0.688-2.445-0.688h-4.758V108.505z"/>
	<path fill="#FFFFFF" stroke="#FFFFFF" stroke-miterlimit="10" d="M84.673,116.903v-15.032h1.988v15.032H84.673z"/>
	<path fill="#FFFFFF" stroke="#FFFFFF" stroke-miterlimit="10" d="M100.894,111.633l1.989,0.503
		c-0.417,1.634-1.167,2.879-2.251,3.737c-1.083,0.857-2.408,1.286-3.973,1.286c-1.621,0-2.938-0.329-3.953-0.989
		c-1.016-0.659-1.788-1.614-2.317-2.866c-0.53-1.25-0.795-2.594-0.795-4.029c0-1.565,0.299-2.931,0.897-4.097
		c0.598-1.165,1.449-2.051,2.553-2.655c1.104-0.605,2.319-0.908,3.646-0.908c1.504,0,2.769,0.384,3.794,1.148
		c1.025,0.767,1.739,1.843,2.143,3.23l-1.958,0.461c-0.349-1.093-0.854-1.89-1.518-2.389s-1.497-0.748-2.502-0.748
		c-1.155,0-2.121,0.276-2.896,0.83c-0.776,0.554-1.321,1.297-1.636,2.23c-0.314,0.933-0.472,1.896-0.472,2.887
		c0,1.278,0.187,2.394,0.559,3.348c0.373,0.953,0.952,1.666,1.738,2.138s1.637,0.708,2.554,0.708c1.113,0,2.057-0.321,2.83-0.965
		C100.097,113.852,100.62,112.897,100.894,111.633z"/>
	<path fill="#FFFFFF" stroke="#FFFFFF" stroke-miterlimit="10" d="M105.673,116.903v-15.032h1.988v15.032H105.673z"/>
	<path fill="#FFFFFF" stroke="#FFFFFF" stroke-miterlimit="10" d="M114.993,116.903v-13.258h-4.953v-1.774h11.915v1.774h-4.974
		v13.258H114.993z"/>
	<path fill="#FFFFFF" stroke="#FFFFFF" stroke-miterlimit="10" d="M128.231,116.903v-6.367l-5.794-8.665h2.42l2.964,4.532
		c0.546,0.848,1.056,1.695,1.527,2.543c0.451-0.786,0.998-1.672,1.641-2.656l2.912-4.419h2.317l-5.999,8.665v6.367H128.231z"/>
	<path fill="#FFFFFF" stroke="#FFFFFF" stroke-miterlimit="10" d="M1.482,142.104v-15.032h5.67c0.998,0,1.76,0.048,2.287,0.144
		c0.738,0.123,1.357,0.357,1.856,0.702c0.499,0.346,0.9,0.829,1.205,1.451s0.457,1.306,0.457,2.051c0,1.278-0.407,2.36-1.22,3.245
		c-0.813,0.886-2.283,1.328-4.409,1.328H3.472v6.111H1.482z M3.472,134.219h3.886c1.285,0,2.198-0.239,2.738-0.719
		c0.54-0.478,0.81-1.151,0.81-2.02c0-0.629-0.159-1.167-0.477-1.615c-0.317-0.447-0.736-0.743-1.256-0.887
		c-0.335-0.089-0.954-0.133-1.856-0.133H3.472V134.219z"/>
	<path fill="#FFFFFF" stroke="#FFFFFF" stroke-miterlimit="10" d="M15.52,142.104v-15.032h6.665c1.34,0,2.358,0.135,3.056,0.405
		c0.697,0.27,1.254,0.747,1.671,1.43c0.417,0.685,0.625,1.439,0.625,2.267c0,1.066-0.345,1.966-1.036,2.696
		c-0.69,0.732-1.757,1.197-3.199,1.395c0.526,0.254,0.926,0.503,1.2,0.749c0.581,0.533,1.131,1.2,1.651,1.999l2.615,4.092h-2.502
		l-1.989-3.127c-0.581-0.902-1.06-1.593-1.436-2.072c-0.376-0.478-0.712-0.812-1.01-1.004c-0.297-0.191-0.6-0.325-0.907-0.4
		c-0.226-0.048-0.595-0.072-1.107-0.072h-2.307v6.676H15.52z M17.509,133.705h4.276c0.909,0,1.62-0.094,2.133-0.281
		c0.513-0.188,0.902-0.489,1.169-0.902c0.267-0.414,0.4-0.863,0.4-1.349c0-0.711-0.258-1.295-0.774-1.753
		c-0.517-0.458-1.332-0.688-2.446-0.688h-4.758V133.705z"/>
	<path fill="#FFFFFF" stroke="#FFFFFF" stroke-miterlimit="10" d="M30.993,142.104v-15.032h1.989v15.032H30.993z"/>
	<path fill="#FFFFFF" stroke="#FFFFFF" stroke-miterlimit="10" d="M47.215,136.833l1.989,0.503
		c-0.417,1.634-1.167,2.879-2.251,3.737c-1.083,0.857-2.408,1.286-3.973,1.286c-1.62,0-2.938-0.329-3.953-0.989
		c-1.016-0.659-1.788-1.614-2.317-2.866c-0.53-1.25-0.795-2.594-0.795-4.029c0-1.565,0.299-2.931,0.897-4.097
		c0.598-1.165,1.449-2.051,2.553-2.655c1.104-0.605,2.319-0.908,3.646-0.908c1.504,0,2.769,0.384,3.794,1.148
		c1.025,0.767,1.74,1.843,2.143,3.23l-1.958,0.461c-0.349-1.093-0.854-1.89-1.518-2.389s-1.497-0.748-2.502-0.748
		c-1.155,0-2.121,0.276-2.896,0.83c-0.776,0.554-1.321,1.297-1.636,2.23c-0.314,0.933-0.472,1.896-0.472,2.887
		c0,1.278,0.186,2.394,0.559,3.348c0.373,0.953,0.952,1.666,1.738,2.138s1.637,0.708,2.553,0.708c1.114,0,2.058-0.321,2.83-0.965
		C46.418,139.052,46.941,138.098,47.215,136.833z"/>
	<path fill="#FFFFFF" stroke="#FFFFFF" stroke-miterlimit="10" d="M51.696,142.104v-15.032h10.869v1.774h-8.881v4.604h8.316v1.764
		h-8.316v5.117h9.229v1.773H51.696z"/>
</g>
</svg>
