<?xml version="1.0" encoding="utf-8"?>
<!-- Generator: Adobe Illustrator 16.0.0, SVG Export Plug-In . SVG Version: 6.00 Build 0)  -->
<!DOCTYPE svg PUBLIC "-//W3C//DTD SVG 1.1//EN" "http://www.w3.org/Graphics/SVG/1.1/DTD/svg11.dtd">
<svg version="1.1" id="Layer_1" xmlns="http://www.w3.org/2000/svg" xmlns:xlink="http://www.w3.org/1999/xlink" x="0px" y="0px"
	 width="107.217px" height="58.833px" viewBox="0 0 107.217 58.833" enable-background="new 0 0 107.217 58.833"
	 xml:space="preserve">
<g>
	<path fill="#FFFFFF" d="M7.655,8.004h5.607v0.447c0,1.018-0.12,1.919-0.36,2.703c-0.234,0.726-0.63,1.404-1.187,2.036
		c-1.26,1.416-2.862,2.124-4.808,2.124c-1.898,0-3.524-0.685-4.878-2.054C0.677,11.886,0,10.236,0,8.312
		c0-1.966,0.688-3.634,2.065-5.003c1.377-1.375,3.053-2.062,5.027-2.062c1.061,0,2.051,0.217,2.971,0.649
		c0.879,0.433,1.743,1.135,2.593,2.106l-1.459,1.396c-1.113-1.48-2.47-2.22-4.069-2.22c-1.436,0-2.64,0.494-3.612,1.483
		C2.543,5.632,2.057,6.849,2.057,8.312c0,1.509,0.542,2.753,1.626,3.73c1.014,0.907,2.112,1.36,3.296,1.36
		c1.008,0,1.913-0.339,2.716-1.018c0.803-0.685,1.251-1.504,1.345-2.458H7.655V8.004z"/>
	<path fill="#FFFFFF" d="M23.256,11.251h-6.135c0.053,0.702,0.281,1.261,0.686,1.676c0.404,0.41,0.923,0.614,1.556,0.614
		c0.492,0,0.899-0.117,1.222-0.351c0.316-0.234,0.677-0.667,1.081-1.299l1.67,0.93c-0.258,0.439-0.53,0.815-0.817,1.128
		s-0.595,0.571-0.923,0.772s-0.683,0.35-1.063,0.443c-0.381,0.093-0.794,0.14-1.239,0.14c-1.277,0-2.303-0.41-3.076-1.229
		c-0.773-0.825-1.16-1.919-1.16-3.283c0-1.352,0.375-2.445,1.125-3.282c0.756-0.825,1.758-1.237,3.006-1.237
		c1.26,0,2.256,0.4,2.988,1.202c0.727,0.796,1.09,1.899,1.09,3.309L23.256,11.251z M21.226,9.637c-0.275-1.053-0.94-1.58-1.995-1.58
		c-0.24,0-0.466,0.037-0.677,0.11s-0.403,0.179-0.576,0.316c-0.173,0.138-0.321,0.303-0.444,0.496
		c-0.123,0.193-0.217,0.413-0.281,0.658H21.226z"/>
	<path fill="#FFFFFF" d="M27.615,8.355v6.705h-1.978V8.355h-0.844V6.512h0.844V3.379h1.978v3.133h1.538v1.843H27.615z"/>
	<path fill="#FFFFFF" d="M38.092,8.355v6.705h-1.978V8.355h-0.844V6.512h0.844V3.379h1.978v3.133h1.538v1.843H38.092z"/>
	<path fill="#FFFFFF" d="M41.335,0.237h1.978v6.986c0.703-0.632,1.479-0.948,2.329-0.948c0.967,0,1.74,0.313,2.32,0.939
		C48.454,7.758,48.7,8.627,48.7,9.821v5.24h-1.978v-5.055c0-0.685-0.122-1.181-0.364-1.488c-0.244-0.307-0.635-0.461-1.174-0.461
		c-0.691,0-1.178,0.214-1.459,0.641c-0.275,0.433-0.413,1.176-0.413,2.229v4.134h-1.978V0.237z"/>
	<path fill="#FFFFFF" d="M59.001,11.251h-6.135c0.053,0.702,0.281,1.261,0.686,1.676c0.404,0.41,0.923,0.614,1.556,0.614
		c0.492,0,0.899-0.117,1.222-0.351c0.316-0.234,0.677-0.667,1.081-1.299l1.67,0.93c-0.258,0.439-0.53,0.815-0.817,1.128
		s-0.595,0.571-0.923,0.772s-0.683,0.35-1.063,0.443c-0.381,0.093-0.794,0.14-1.239,0.14c-1.277,0-2.303-0.41-3.076-1.229
		c-0.773-0.825-1.16-1.919-1.16-3.283c0-1.352,0.375-2.445,1.125-3.282c0.756-0.825,1.758-1.237,3.006-1.237
		c1.26,0,2.256,0.4,2.988,1.202c0.727,0.796,1.09,1.899,1.09,3.309L59.001,11.251z M56.971,9.637c-0.275-1.053-0.94-1.58-1.995-1.58
		c-0.24,0-0.466,0.037-0.677,0.11s-0.403,0.179-0.576,0.316c-0.173,0.138-0.32,0.303-0.443,0.496
		c-0.123,0.193-0.217,0.413-0.281,0.658H56.971z"/>
	<path fill="#FFFFFF" d="M68.766,8.355v6.705h-1.986V8.355h-0.703V6.512h0.703v-3.3c0-1.077,0.188-1.837,0.562-2.282
		C67.857,0.31,68.607,0,69.592,0c0.352,0,0.794,0.103,1.327,0.307v2.019l-0.202-0.105c-0.428-0.217-0.779-0.325-1.055-0.325
		c-0.352,0-0.589,0.126-0.712,0.377c-0.123,0.246-0.185,0.72-0.185,1.422v2.817h2.153v1.843H68.766z"/>
	<path fill="#FFFFFF" d="M78.645,6.512h1.986v8.548h-1.986v-0.895c-0.814,0.76-1.69,1.141-2.628,1.141
		c-1.184,0-2.162-0.427-2.936-1.281c-0.768-0.872-1.151-1.96-1.151-3.265c0-1.282,0.384-2.35,1.151-3.204
		c0.768-0.854,1.729-1.281,2.883-1.281c0.996,0,1.89,0.409,2.681,1.229V6.512z M73.951,10.76c0,0.819,0.22,1.486,0.659,2.001
		c0.451,0.521,1.02,0.781,1.705,0.781c0.732,0,1.324-0.251,1.775-0.754c0.451-0.521,0.677-1.182,0.677-1.984
		c0-0.801-0.226-1.462-0.677-1.983c-0.451-0.509-1.037-0.764-1.758-0.764c-0.68,0-1.248,0.258-1.705,0.772
		C74.177,9.35,73.951,9.994,73.951,10.76z"/>
	<path fill="#FFFFFF" d="M89.789,6.881v2.624c-0.451-0.55-0.855-0.927-1.213-1.132c-0.352-0.211-0.765-0.316-1.239-0.316
		c-0.744,0-1.362,0.261-1.854,0.781c-0.492,0.521-0.738,1.173-0.738,1.957c0,0.802,0.237,1.46,0.712,1.975
		c0.48,0.515,1.093,0.772,1.837,0.772c0.475,0,0.894-0.102,1.257-0.307c0.352-0.199,0.765-0.585,1.239-1.158v2.606
		c-0.803,0.416-1.605,0.623-2.408,0.623c-1.324,0-2.432-0.427-3.322-1.281c-0.891-0.86-1.336-1.928-1.336-3.204
		c0-1.275,0.451-2.352,1.354-3.229c0.902-0.878,2.01-1.316,3.322-1.316C88.242,6.275,89.039,6.477,89.789,6.881z"/>
	<path fill="#FFFFFF" d="M93.744,8.355v6.705h-1.978V8.355h-0.844V6.512h0.844V3.379h1.978v3.133h1.538v1.843H93.744z"/>
	<path fill="#FFFFFF" d="M101.602,7.969l-1.635,0.869c-0.258-0.526-0.577-0.79-0.958-0.79c-0.182,0-0.337,0.06-0.466,0.18
		S98.35,8.501,98.35,8.689c0,0.328,0.381,0.652,1.143,0.974c1.049,0.45,1.755,0.866,2.118,1.246s0.545,0.892,0.545,1.536
		c0,0.825-0.305,1.515-0.914,2.071c-0.592,0.526-1.307,0.79-2.145,0.79c-1.436,0-2.452-0.699-3.05-2.098l1.688-0.781
		c0.234,0.409,0.413,0.67,0.536,0.781c0.24,0.223,0.527,0.333,0.861,0.333c0.668,0,1.002-0.304,1.002-0.913
		c0-0.351-0.258-0.679-0.773-0.983c-0.199-0.1-0.398-0.196-0.598-0.29s-0.401-0.19-0.606-0.29c-0.574-0.281-0.979-0.562-1.213-0.843
		c-0.299-0.357-0.448-0.816-0.448-1.378c0-0.743,0.255-1.357,0.765-1.843c0.521-0.486,1.154-0.729,1.898-0.729
		C100.254,6.275,101.068,6.84,101.602,7.969z"/>
	<path fill="#FFFFFF" d="M104.238,14.078c0-0.328,0.12-0.611,0.36-0.852c0.24-0.24,0.527-0.36,0.861-0.36s0.621,0.12,0.861,0.36
		c0.24,0.24,0.36,0.527,0.36,0.86c0,0.339-0.12,0.629-0.36,0.869c-0.234,0.234-0.521,0.351-0.861,0.351
		c-0.346,0-0.636-0.117-0.87-0.351C104.355,14.721,104.238,14.429,104.238,14.078z"/>
	<path fill="#FFFFFF" d="M2.725,23.078v11.629h3.99v1.922H0.677V23.078H2.725z"/>
	<path fill="#FFFFFF" d="M7.875,32.293c0-1.234,0.442-2.285,1.327-3.15c0.885-0.866,1.963-1.299,3.234-1.299
		c1.277,0,2.361,0.436,3.252,1.308c0.879,0.872,1.318,1.942,1.318,3.212c0,1.281-0.442,2.355-1.327,3.221
		c-0.891,0.86-1.983,1.291-3.278,1.291c-1.283,0-2.358-0.439-3.226-1.317C8.309,34.693,7.875,33.604,7.875,32.293z M9.896,32.329
		c0,0.854,0.229,1.53,0.686,2.027c0.469,0.504,1.087,0.755,1.854,0.755c0.773,0,1.392-0.248,1.854-0.746
		c0.463-0.497,0.694-1.161,0.694-1.992s-0.231-1.495-0.694-1.992c-0.469-0.503-1.087-0.755-1.854-0.755
		c-0.756,0-1.368,0.252-1.837,0.755S9.896,31.533,9.896,32.329z"/>
	<path fill="#FFFFFF" d="M25.761,28.45v2.624c-0.451-0.55-0.855-0.927-1.213-1.132c-0.352-0.21-0.765-0.316-1.239-0.316
		c-0.744,0-1.362,0.261-1.854,0.781s-0.738,1.173-0.738,1.957c0,0.802,0.237,1.46,0.712,1.975c0.48,0.516,1.093,0.772,1.837,0.772
		c0.475,0,0.894-0.103,1.257-0.307c0.352-0.199,0.765-0.586,1.239-1.159v2.606c-0.803,0.416-1.605,0.624-2.408,0.624
		c-1.324,0-2.432-0.428-3.322-1.282c-0.891-0.859-1.336-1.928-1.336-3.203s0.451-2.352,1.354-3.229
		c0.902-0.878,2.01-1.316,3.322-1.316C24.214,27.844,25.011,28.046,25.761,28.45z"/>
	<path fill="#FFFFFF" d="M30.12,21.806v9.04l2.786-2.764h2.654l-3.718,3.589l3.99,4.959h-2.566l-2.83-3.607l-0.316,0.316v3.291
		h-1.978V21.806H30.12z"/>
	<path fill="#FFFFFF" d="M42.363,24.526c0-0.345,0.126-0.644,0.378-0.895s0.554-0.377,0.905-0.377c0.357,0,0.662,0.126,0.914,0.377
		c0.252,0.246,0.378,0.547,0.378,0.904s-0.126,0.661-0.378,0.913c-0.246,0.251-0.548,0.377-0.905,0.377s-0.662-0.125-0.914-0.377
		C42.489,25.196,42.363,24.889,42.363,24.526z M44.64,28.081v8.548h-1.978v-8.548H44.64z"/>
	<path fill="#FFFFFF" d="M47.145,28.081h1.986v0.79c0.691-0.685,1.471-1.027,2.338-1.027c0.996,0,1.772,0.313,2.329,0.939
		c0.48,0.532,0.721,1.401,0.721,2.607v5.239h-1.986v-4.774c0-0.843-0.117-1.425-0.352-1.747c-0.229-0.328-0.645-0.492-1.248-0.492
		c-0.656,0-1.122,0.217-1.397,0.649c-0.27,0.427-0.404,1.174-0.404,2.238v4.125h-1.986V28.081z"/>
	<path fill="#FFFFFF" d="M6.609,49.651h1.986v8.548H6.609v-0.895c-0.814,0.761-1.69,1.141-2.628,1.141
		c-1.184,0-2.162-0.427-2.936-1.281c-0.768-0.872-1.151-1.96-1.151-3.265c0-1.281,0.384-2.35,1.151-3.204
		c0.768-0.854,1.729-1.281,2.883-1.281c0.996,0,1.89,0.41,2.681,1.229V49.651z M1.916,53.899c0,0.818,0.22,1.485,0.659,2.001
		c0.451,0.521,1.02,0.781,1.705,0.781c0.732,0,1.324-0.252,1.775-0.755c0.451-0.521,0.677-1.183,0.677-1.983
		c0-0.802-0.226-1.463-0.677-1.984c-0.451-0.509-1.037-0.763-1.758-0.763c-0.68,0-1.248,0.257-1.705,0.771
		C2.142,52.489,1.916,53.132,1.916,53.899z"/>
	<path fill="#FFFFFF" d="M18.694,51.494v6.705h-1.986v-6.705h-0.703v-1.843h0.703v-3.3c0-1.077,0.188-1.838,0.562-2.282
		c0.516-0.62,1.266-0.931,2.25-0.931c0.352,0,0.794,0.103,1.327,0.308v2.019l-0.202-0.105c-0.428-0.217-0.779-0.324-1.055-0.324
		c-0.352,0-0.589,0.125-0.712,0.377c-0.123,0.246-0.185,0.72-0.185,1.422v2.817h2.153v1.843H18.694z"/>
	<path fill="#FFFFFF" d="M22.069,46.096c0-0.345,0.126-0.644,0.378-0.896c0.252-0.251,0.554-0.377,0.905-0.377
		c0.357,0,0.662,0.126,0.914,0.377c0.252,0.246,0.378,0.548,0.378,0.904c0,0.357-0.126,0.661-0.378,0.913
		c-0.246,0.251-0.548,0.377-0.905,0.377s-0.662-0.126-0.914-0.377C22.195,46.766,22.069,46.459,22.069,46.096z M24.346,49.651v8.548
		h-1.978v-8.548H24.346z"/>
	<path fill="#FFFFFF" d="M29.505,53.574l-3.076-3.923h2.355l1.907,2.492l1.942-2.492h2.426l-3.164,3.923l3.665,4.625h-2.355
		l-2.514-3.194l-2.575,3.194h-2.417L29.505,53.574z"/>
	<path fill="#FFFFFF" d="M44.402,54.39h-6.135c0.053,0.702,0.281,1.261,0.686,1.676c0.404,0.41,0.923,0.615,1.556,0.615
		c0.492,0,0.899-0.117,1.222-0.352c0.316-0.234,0.677-0.667,1.081-1.299l1.67,0.931c-0.258,0.438-0.53,0.814-0.817,1.128
		s-0.595,0.569-0.923,0.772c-0.328,0.201-0.683,0.349-1.063,0.442s-0.794,0.141-1.239,0.141c-1.277,0-2.303-0.409-3.076-1.229
		c-0.773-0.825-1.16-1.919-1.16-3.282c0-1.352,0.375-2.446,1.125-3.283c0.756-0.824,1.758-1.237,3.006-1.237
		c1.26,0,2.256,0.401,2.988,1.202c0.727,0.796,1.09,1.899,1.09,3.31L44.402,54.39z M42.372,52.775
		c-0.275-1.053-0.94-1.579-1.995-1.579c-0.24,0-0.466,0.037-0.677,0.108c-0.211,0.074-0.403,0.18-0.576,0.316
		c-0.173,0.139-0.32,0.304-0.443,0.496c-0.123,0.193-0.217,0.413-0.281,0.658H42.372z"/>
	<path fill="#FFFFFF" d="M52.875,43.375h1.986v14.823h-1.986v-0.895c-0.779,0.761-1.661,1.141-2.646,1.141
		c-1.172,0-2.145-0.427-2.918-1.281c-0.768-0.872-1.151-1.96-1.151-3.265c0-1.275,0.384-2.341,1.151-3.195
		c0.762-0.859,1.72-1.29,2.874-1.29c1.002,0,1.898,0.41,2.689,1.229V43.375z M48.182,53.899c0,0.818,0.22,1.485,0.659,2.001
		c0.451,0.521,1.02,0.781,1.705,0.781c0.732,0,1.324-0.252,1.775-0.755c0.451-0.521,0.677-1.183,0.677-1.983
		c0-0.802-0.226-1.463-0.677-1.984c-0.451-0.509-1.037-0.763-1.758-0.763c-0.68,0-1.248,0.257-1.705,0.771
		C48.407,52.489,48.182,53.132,48.182,53.899z"/>
	<path fill="#FFFFFF" d="M62.912,49.651h1.978v0.764c0.363-0.381,0.686-0.641,0.967-0.781c0.287-0.146,0.627-0.22,1.02-0.22
		c0.521,0,1.066,0.17,1.635,0.509l-0.905,1.809c-0.375-0.27-0.741-0.404-1.099-0.404c-1.078,0-1.617,0.813-1.617,2.44v4.432h-1.978
		V49.651z"/>
	<path fill="#FFFFFF" d="M75.832,49.651h1.986v8.548h-1.986v-0.895c-0.814,0.761-1.69,1.141-2.628,1.141
		c-1.184,0-2.162-0.427-2.936-1.281c-0.768-0.872-1.151-1.96-1.151-3.265c0-1.281,0.384-2.35,1.151-3.204
		c0.768-0.854,1.729-1.281,2.883-1.281c0.996,0,1.89,0.41,2.681,1.229V49.651z M71.139,53.899c0,0.818,0.22,1.485,0.659,2.001
		c0.451,0.521,1.02,0.781,1.705,0.781c0.732,0,1.324-0.252,1.775-0.755c0.451-0.521,0.677-1.183,0.677-1.983
		c0-0.802-0.226-1.463-0.677-1.984c-0.451-0.509-1.037-0.763-1.758-0.763c-0.68,0-1.248,0.257-1.705,0.771
		C71.364,52.489,71.139,53.132,71.139,53.899z"/>
	<path fill="#FFFFFF" d="M82.354,51.494v6.705h-1.978v-6.705h-0.844v-1.843h0.844v-3.134h1.978v3.134h1.538v1.843H82.354z"/>
	<path fill="#FFFFFF" d="M93.19,54.39h-6.135c0.053,0.702,0.281,1.261,0.686,1.676c0.404,0.41,0.923,0.615,1.556,0.615
		c0.492,0,0.899-0.117,1.222-0.352c0.316-0.234,0.677-0.667,1.081-1.299l1.67,0.931c-0.258,0.438-0.53,0.814-0.817,1.128
		s-0.595,0.569-0.923,0.772c-0.328,0.201-0.683,0.349-1.063,0.442s-0.794,0.141-1.239,0.141c-1.277,0-2.303-0.409-3.076-1.229
		c-0.773-0.825-1.16-1.919-1.16-3.282c0-1.352,0.375-2.446,1.125-3.283c0.756-0.824,1.758-1.237,3.006-1.237
		c1.26,0,2.256,0.401,2.988,1.202c0.727,0.796,1.09,1.899,1.09,3.31L93.19,54.39z M91.16,52.775
		c-0.275-1.053-0.94-1.579-1.995-1.579c-0.24,0-0.466,0.037-0.677,0.108c-0.211,0.074-0.403,0.18-0.576,0.316
		c-0.173,0.139-0.32,0.304-0.443,0.496c-0.123,0.193-0.217,0.413-0.281,0.658H91.16z"/>
	<path fill="#FFFFFF" d="M95.66,57.216c0-0.328,0.12-0.611,0.36-0.852s0.527-0.359,0.861-0.359s0.621,0.119,0.861,0.359
		s0.36,0.526,0.36,0.86c0,0.339-0.12,0.629-0.36,0.869c-0.234,0.233-0.521,0.351-0.861,0.351c-0.346,0-0.636-0.117-0.87-0.351
		C95.777,57.86,95.66,57.567,95.66,57.216z"/>
</g>
</svg>
