<?xml version="1.0" encoding="UTF-8" standalone="no"?>
<svg width="22px" height="33px" viewBox="0 0 22 33" version="1.1" xmlns="http://www.w3.org/2000/svg" xmlns:xlink="http://www.w3.org/1999/xlink" xmlns:sketch="http://www.bohemiancoding.com/sketch/ns">
    <!-- Generator: Sketch 3.4.4 (17249) - http://www.bohemiancoding.com/sketch -->
    <title>Group</title>
    <desc>Created with Sketch.</desc>
    <defs></defs>
    <g id="Page-1" stroke="none" stroke-width="1" fill="none" fill-rule="evenodd" sketch:type="MSPage">
        <g id="Artboard-1-Copy" sketch:type="MSArtboardGroup" transform="translate(-18.000000, -203.000000)" fill="#288DC1">
            <g id="Rectangle-2-+-Page-1" sketch:type="MSLayerGroup" transform="translate(0.000000, 190.000000)">
                <g id="Page-1" transform="translate(18.000000, 13.000000)" sketch:type="MSShapeGroup">
                    <g id="Group-22">
                        <g id="Group">
                            <path d="M19.8352205,10.9278262 C19.7519158,12.2513419 19.351032,13.5172475 18.6599382,14.7364896 C18.3927089,15.2077584 18.1218091,15.6776688 17.8570534,16.1503758 C16.3320351,18.1721651 15.4724169,20.4373395 15.0629951,22.8958794 C14.9936543,23.3124145 14.8352637,23.4741385 14.4746757,23.5959109 C13.2029228,24.0254702 11.9259035,24.240969 10.6413835,24.2610247 C9.35686359,24.240969 8.07984427,24.0254702 6.80809133,23.5959109 C6.44750333,23.4741385 6.28911272,23.3124145 6.21977194,22.8958794 C5.81035016,20.4373395 4.95073199,18.1721651 3.42571366,16.1503758 C3.16095797,15.6776688 2.88997836,15.2077584 2.62282885,14.7364896 C1.93165531,13.5172475 1.53085125,12.2513419 1.44754657,10.9278262 C1.43884905,10.7037777 1.43677441,10.4754944 1.4420408,10.2424169 C1.44140245,10.1230416 1.4433175,10.0041458 1.44746678,9.88548959 C1.46534058,9.59584068 1.49765705,9.30339516 1.5456131,9.00807312 C2.26591137,4.56961308 6.23118245,1.47967845 10.6413835,1.42086973 C15.0515846,1.47967845 19.0168557,4.56961308 19.737154,9.00807312 C19.78511,9.30339516 19.8174265,9.59584068 19.8353003,9.88548959 C19.8394496,10.0041458 19.8413646,10.1230416 19.8407263,10.2424169 C19.8459927,10.4754944 19.843918,10.7037777 19.8352205,10.9278262 M21.2080721,9.20607312 C20.7259582,5.10144843 17.9192925,1.28942906 13.2181634,0.29775109 C12.9884372,0.249249879 12.7559182,0.213453269 12.5218033,0.184608232 C11.9321274,0.0822523002 11.326014,0.026959322 10.7076921,0.0216058111 C10.6855893,0.0213661017 10.6634864,0.0210464891 10.6413835,0.0210464891 C10.6192807,0.0210464891 10.5971778,0.0213661017 10.5750749,0.0216058111 C9.95675308,0.026959322 9.35063968,0.0822523002 8.7609638,0.184608232 C8.52684891,0.213453269 8.29432989,0.249249879 8.06460366,0.29775109 C3.36347453,1.28942906 0.556808833,5.10144843 0.0746151445,9.20607312 C0.0248238386,9.60031525 0.000726123211,9.98904407 0.000486741933,10.372739 C-0.021775717,12.6773056 0.689745236,14.9987317 2.20973656,16.900107 C2.23215861,16.9282329 2.25386251,16.9565186 2.27604517,16.9847245 C3.82444308,18.9574533 4.62046562,21.2368504 4.8713372,23.6975477 C4.92224562,24.1965429 5.07289624,24.430739 5.51734748,24.6102015 C7.21368301,25.295291 8.919514,25.6446276 10.6413835,25.6697971 C12.3632531,25.6446276 14.0690841,25.295291 15.7654196,24.6102015 C16.2098708,24.430739 16.3605214,24.1965429 16.4114299,23.6975477 C16.6623014,21.2368504 17.458324,18.9574533 19.0067219,16.9847245 C19.0289046,16.9565186 19.0506085,16.9282329 19.0730305,16.900107 C20.5930218,14.9987317 21.3045428,12.6773056 21.2822803,10.372739 C21.2784502,9.98265182 21.2535546,9.59304407 21.2080721,9.20607312" id="Fill-20"></path>
                            <path d="M5.93409432,25.4947133 L5.93409432,27.6783065 C5.93409432,28.0464203 6.28766047,28.2857303 6.65527032,28.2857303 L14.6417479,28.2857303 C15.009278,28.2857303 15.3497579,28.0464203 15.3497579,27.6783065 L15.3497579,25.4895196 C13.8336765,26.0580305 12.2017345,26.3503961 10.6348245,26.3732484 C9.07270206,26.350476 7.52996951,26.0597884 5.93409432,25.4947133" id="Fill-35"></path>
                            <path d="M13.9761961,29.2445521 L7.32075825,29.2445521 C6.9532282,29.2445521 6.6552783,29.5956465 6.6552783,29.9636804 C6.6552783,30.3317143 6.9532282,30.6828087 7.32075825,30.6828087 L13.9761961,30.6828087 C14.3437262,30.6828087 14.6417559,30.3317143 14.6417559,29.9636804 C14.6417559,29.5956465 14.3437262,29.2445521 13.9761961,29.2445521" id="Fill-37"></path>
                            <path d="M13.3106524,31.7215496 L7.98633396,31.7215496 C7.61872411,31.7215496 7.32077421,31.9927409 7.32077421,32.3607748 C7.32077421,32.7288087 7.61872411,33 7.98633396,33 L13.3106524,33 C13.6781824,33 13.9762121,32.7288087 13.9762121,32.3607748 C13.9762121,31.9927409 13.6781824,31.7215496 13.3106524,31.7215496" id="Fill-39"></path>
                        </g>
                    </g>
                </g>
            </g>
        </g>
    </g>
</svg>